<?xml version="1.0" encoding="iso-8859-1"?>
<!-- Generator: Adobe Illustrator 19.0.0, SVG Export Plug-In . SVG Version: 6.00 Build 0)  -->
<svg version="1.1" id="Layer_1" xmlns="http://www.w3.org/2000/svg" xmlns:xlink="http://www.w3.org/1999/xlink" x="0px" y="0px"
	 viewBox="0 0 507.6 507.6" style="enable-background:new 0 0 507.6 507.6;" xml:space="preserve">
<path style="fill:#FFC52F;" d="M416.6,122.4h-66.8V156h1.2c11.6,4.4,20,16,20,29.2c0,17.2-14,31.2-31.2,31.2s-31.2-14.4-31.2-31.6
	c0-13.6,8-26,20-30H325v-32H177v3.6V156h0.8c11.6,4.4,20,16,20,29.2c0,17.2-14,31.2-31.2,31.2s-31.2-14.4-31.2-31.6
	c0-13.6,9.2-26,21.2-30h0.4v-28.4v-4H90.6l-24.4,324h373.6L416.6,122.4z"/>
<g>
	<path style="fill:#EF934A;" d="M167.8,191.6c-5.6,0-10-4.8-10-10.4v-30.8h-0.4c-12,4-20.8,16.4-20.8,30c0,17.2,14,31.6,31.2,31.6
		s31.2-13.6,31.2-31.2c0-13.2-8.4-24.4-20-29.2h-0.8v29.2C177.8,186.8,173.4,191.6,167.8,191.6z"/>
	<path style="fill:#EF934A;" d="M337.8,191.6c-5.6,0-12-4.8-12-10.4v-30.8h3.6c-12,4-20.4,16.4-20.4,30c0,17.2,14,31.6,31.2,31.6
		s31.2-13.6,31.2-31.2c0-13.2-8.8-24.4-20.4-29.2h-1.2v29.2C349.8,186.8,343.4,191.6,337.8,191.6z"/>
</g>
<path style="fill:#F0C960;" d="M253.8,4.4c-53.6,0-96,43.6-96,96.8v79.6c0,5.6,4.4,10.4,10,10.4s10-4.8,10-10.4v-79.6
	c0-42,32-76,74-76s74,34,74,76v79.6c0,5.6,6.4,10.4,12,10.4s12-4.8,12-10.4v-79.6C349.8,48,307.4,4.4,253.8,4.4z"/>
<circle style="fill:#73BADD;" cx="253.8" cy="392.8" r="111.6"/>
<path d="M157.8,452.4H67c-1.2,0-2-0.4-2.8-1.2c-0.8-0.8-1.2-2-1.2-3.2l24.4-324c0-2,2-3.6,4-3.6h58.8c2.4,0,4,1.6,4,4s-1.6,4-4,4H95
	l-23.6,316h86.8c2.4,0,4,1.6,4,4S160.2,452.4,157.8,452.4z"/>
<path d="M440.6,452.4h-86.8c-2.4,0-4-1.6-4-4s1.6-4,4-4h82.4l-23.6-316h-62.8c-2.4,0-4-1.6-4-4s1.6-4,4-4h66.4c2,0,4,1.6,4,3.6
	l24.4,324c0,1.2-0.4,2.4-1.2,3.2C442.6,452,441.8,452.4,440.6,452.4z"/>
<path d="M321.8,128.4h-144c-2.4,0-4-1.6-4-4s1.6-4,4-4h144c2.4,0,4,1.6,4,4S324.2,128.4,321.8,128.4z"/>
<path d="M337.8,195.2c-8,0-14-6.4-14-14.4v-79.6c0-38.4-35.6-72-76-72c-38.8,0-67.6,30.4-68,72v79.6c0,4.8-1.2,8.4-3.6,10.8
	c-2.4,2.4-6,3.6-10.4,3.6c-9.2,0-13.6-4.8-14-14.4v-79.6c0-28.4,10.4-54.4,29.2-73.6C198.6,10,222.2,0,247.8,0
	c57.6,0,106,46.4,106,100.8l-2,79.6C351.8,188.8,345.8,195.2,337.8,195.2z M247.8,21.2c45.6,0,84,36.8,84,80v79.6
	c0,3.6,2.4,6.4,6,6.4s6-2.8,6-6.4l2-79.6c0-49.6-45.6-92.8-98-92.8c-23.2,0-45.2,8.8-61.2,25.2c-17.6,17.6-26.8,41.6-26.8,67.6v79.6
	c0,5.6,2,6.4,6,6.4c2.4,0,4-0.4,4.8-1.2c1.2-1.2,1.2-3.2,1.2-5.2v-79.6C172.2,54.8,204.2,21.2,247.8,21.2z"/>
<path d="M167,216c-19.2,0-35.2-15.6-35.2-35.2c0-12.4,6-21.6,18-28c2-1.2,4.4-0.4,5.6,1.6c1.2,2,0.4,4.4-1.6,5.6
	c-9.6,5.2-13.6,11.6-13.6,21.2c0,14.8,12,27.2,27.2,27.2c14.8,0,27.2-12,27.2-27.2c0-11.2-6.8-21.2-17.2-25.2
	c-2-0.8-3.2-3.2-2.4-5.2s3.2-3.2,5.2-2.4c13.6,5.2,22.4,18.4,22.4,32.8C202.2,200.4,186.6,216,167,216z"/>
<path d="M340.2,216c-19.2,0-35.2-15.6-35.2-35.2c0-12,5.6-21.6,16.8-28c2-1.2,4.4-0.4,5.6,1.2c1.2,2,0.4,4.4-1.2,5.6
	c-8.8,5.2-12.8,12-12.8,21.2c0,14.8,12,27.2,27.2,27.2c14.8,0,27.2-12,27.2-27.2c0-11.2-6.8-21.2-17.2-25.2c-2-0.8-3.2-3.2-2.4-5.2
	s3.2-3.2,5.2-2.4c13.6,5.2,22.4,18.4,22.4,32.8C375.4,200.4,359.8,216,340.2,216z"/>
<path d="M145.8,432.4h-76c-2.4,0-4-1.6-4-4s1.6-4,4-4h76c2.4,0,4,1.6,4,4S148.2,432.4,145.8,432.4z"/>
<path d="M401.8,432.4h-40c-2.4,0-4-1.6-4-4s1.6-4,4-4h40c2.4,0,4,1.6,4,4S404.2,432.4,401.8,432.4z"/>
<path d="M253.8,507.6C190.6,507.6,139,456,139,392.8S190.6,278,253.8,278s114.8,51.6,114.8,114.8S317,507.6,253.8,507.6z M253.8,286
	C195,286,147,334,147,392.8s48,106.8,106.8,106.8s106.8-48,106.8-106.8S312.6,286,253.8,286z"/>
<path d="M251.8,454.4c-2.4,0-4-1.6-4-4v-116c0-2.4,1.6-4,4-4s4,1.6,4,4v116C255.8,452.8,254.2,454.4,251.8,454.4z"/>
<path d="M309.8,396.4h-116c-2.4,0-4-1.6-4-4s1.6-4,4-4h116c2.4,0,4,1.6,4,4S312.2,396.4,309.8,396.4z"/>
<g>
</g>
<g>
</g>
<g>
</g>
<g>
</g>
<g>
</g>
<g>
</g>
<g>
</g>
<g>
</g>
<g>
</g>
<g>
</g>
<g>
</g>
<g>
</g>
<g>
</g>
<g>
</g>
<g>
</g>
</svg>
