<?xml version="1.0" encoding="iso-8859-1"?>
<!-- Generator: Adobe Illustrator 19.0.0, SVG Export Plug-In . SVG Version: 6.00 Build 0)  -->
<svg version="1.1" id="Layer_1" xmlns="http://www.w3.org/2000/svg" xmlns:xlink="http://www.w3.org/1999/xlink" x="0px" y="0px"
	 viewBox="0 0 512 512" style="enable-background:new 0 0 512 512;" xml:space="preserve">
<g transform="translate(1 1)">
	<path style="fill:#FD9808;" d="M493.933,16.067v477.867c0,5.12-3.413,8.533-8.533,8.533H255V7.533h230.4
		C490.52,7.533,493.933,10.947,493.933,16.067"/>
	<path style="fill:#FFDD09;" d="M468.333,16.067v477.867c0,5.12-3.413,8.533-8.533,8.533H263.533V7.533H459.8
		C464.92,7.533,468.333,10.947,468.333,16.067"/>
	<path style="fill:#FFFFFF;" d="M16.067,16.067v477.867c0,5.12,3.413,8.533,8.533,8.533H255V7.533H24.6
		C20.333,7.533,16.067,10.947,16.067,16.067"/>
	<path style="fill:#FFDD09;" d="M41.667,16.067v477.867c0,5.12,3.413,8.533,8.533,8.533h196.267V7.533H50.2
		C45.933,7.533,41.667,10.947,41.667,16.067"/>
	<path style="fill:#54C9FD;" d="M196.12,109.933c0-33.28-27.307-59.733-60.587-59.733s-60.587,26.453-60.587,59.733H196.12z"/>
	<path d="M255,511H24.6c-9.387,0-17.067-7.68-17.067-17.067V16.067C7.533,6.68,15.213-1,24.6-1H255c5.12,0,8.533,3.413,8.533,8.533
		v494.933C263.533,507.587,260.12,511,255,511z M24.6,16.067v477.867h221.867V16.067H24.6z"/>
	<path d="M485.4,511H255c-5.12,0-8.533-3.413-8.533-8.533V7.533C246.467,2.413,249.88-1,255-1h230.4
		c9.387,0,17.067,7.68,17.067,17.067v477.867C502.467,503.32,494.787,511,485.4,511z M263.533,493.933H485.4V16.067H263.533V493.933
		z M485.4,16.067h8.533H485.4L485.4,16.067z"/>
	<path d="M196.12,118.467H74.947c-5.12,0-8.533-3.413-8.533-8.533c0-37.547,30.72-68.267,69.12-68.267s69.12,29.867,69.12,68.267
		C204.653,115.053,201.24,118.467,196.12,118.467z M84.333,101.4h102.4c-4.267-24.747-25.6-42.667-51.2-42.667
		C109.08,58.733,87.747,76.653,84.333,101.4z"/>
	<path d="M203.8,152.6H67.267c-5.12,0-8.533-3.413-8.533-8.533c0-5.12,3.413-8.533,8.533-8.533H203.8
		c5.12,0,8.533,3.413,8.533,8.533C212.333,149.187,208.92,152.6,203.8,152.6z"/>
	<path d="M144.067,220.867H50.2c-5.12,0-8.533-3.413-8.533-8.533c0-5.12,3.413-8.533,8.533-8.533h93.867
		c5.12,0,8.533,3.413,8.533,8.533C152.6,217.453,149.187,220.867,144.067,220.867z"/>
	<path d="M220.867,220.867h-25.6c-5.12,0-8.533-3.413-8.533-8.533c0-5.12,3.413-8.533,8.533-8.533h25.6
		c5.12,0,8.533,3.413,8.533,8.533C229.4,217.453,225.987,220.867,220.867,220.867z"/>
	<path d="M144.067,297.667H50.2c-5.12,0-8.533-3.413-8.533-8.533c0-5.12,3.413-8.533,8.533-8.533h93.867
		c5.12,0,8.533,3.413,8.533,8.533C152.6,294.253,149.187,297.667,144.067,297.667z"/>
	<path d="M220.867,297.667h-25.6c-5.12,0-8.533-3.413-8.533-8.533c0-5.12,3.413-8.533,8.533-8.533h25.6
		c5.12,0,8.533,3.413,8.533,8.533C229.4,294.253,225.987,297.667,220.867,297.667z"/>
	<path d="M144.067,374.467H50.2c-5.12,0-8.533-3.413-8.533-8.533S45.08,357.4,50.2,357.4h93.867c5.12,0,8.533,3.413,8.533,8.533
		S149.187,374.467,144.067,374.467z"/>
	<path d="M220.867,374.467h-25.6c-5.12,0-8.533-3.413-8.533-8.533s3.413-8.533,8.533-8.533h25.6c5.12,0,8.533,3.413,8.533,8.533
		S225.987,374.467,220.867,374.467z"/>
	<path d="M144.067,451.267H50.2c-5.12,0-8.533-3.413-8.533-8.533c0-5.12,3.413-8.533,8.533-8.533h93.867
		c5.12,0,8.533,3.413,8.533,8.533C152.6,447.853,149.187,451.267,144.067,451.267z"/>
	<path d="M220.867,451.267h-25.6c-5.12,0-8.533-3.413-8.533-8.533c0-5.12,3.413-8.533,8.533-8.533h25.6
		c5.12,0,8.533,3.413,8.533,8.533C229.4,447.853,225.987,451.267,220.867,451.267z"/>
	<path d="M383,220.867h-93.867c-5.12,0-8.533-3.413-8.533-8.533c0-5.12,3.413-8.533,8.533-8.533H383c5.12,0,8.533,3.413,8.533,8.533
		C391.533,217.453,388.12,220.867,383,220.867z"/>
	<path d="M459.8,220.867h-25.6c-5.12,0-8.533-3.413-8.533-8.533c0-5.12,3.413-8.533,8.533-8.533h25.6
		c5.12,0,8.533,3.413,8.533,8.533C468.333,217.453,464.92,220.867,459.8,220.867z"/>
	<path d="M383,297.667h-93.867c-5.12,0-8.533-3.413-8.533-8.533c0-5.12,3.413-8.533,8.533-8.533H383c5.12,0,8.533,3.413,8.533,8.533
		C391.533,294.253,388.12,297.667,383,297.667z"/>
	<path d="M459.8,297.667h-25.6c-5.12,0-8.533-3.413-8.533-8.533c0-5.12,3.413-8.533,8.533-8.533h25.6
		c5.12,0,8.533,3.413,8.533,8.533C468.333,294.253,464.92,297.667,459.8,297.667z"/>
	<path d="M383,144.067h-93.867c-5.12,0-8.533-3.413-8.533-8.533s3.413-8.533,8.533-8.533H383c5.12,0,8.533,3.413,8.533,8.533
		S388.12,144.067,383,144.067z"/>
	<path d="M459.8,144.067h-25.6c-5.12,0-8.533-3.413-8.533-8.533S429.08,127,434.2,127h25.6c5.12,0,8.533,3.413,8.533,8.533
		S464.92,144.067,459.8,144.067z"/>
	<path d="M383,67.267h-93.867c-5.12,0-8.533-3.413-8.533-8.533s3.413-8.533,8.533-8.533H383c5.12,0,8.533,3.413,8.533,8.533
		S388.12,67.267,383,67.267z"/>
	<path d="M459.8,67.267h-25.6c-5.12,0-8.533-3.413-8.533-8.533S429.08,50.2,434.2,50.2h25.6c5.12,0,8.533,3.413,8.533,8.533
		S464.92,67.267,459.8,67.267z"/>
	<path d="M383,374.467h-93.867c-5.12,0-8.533-3.413-8.533-8.533s3.413-8.533,8.533-8.533H383c5.12,0,8.533,3.413,8.533,8.533
		S388.12,374.467,383,374.467z"/>
	<path d="M459.8,374.467h-25.6c-5.12,0-8.533-3.413-8.533-8.533s3.413-8.533,8.533-8.533h25.6c5.12,0,8.533,3.413,8.533,8.533
		S464.92,374.467,459.8,374.467z"/>
	<path d="M383,451.267h-93.867c-5.12,0-8.533-3.413-8.533-8.533c0-5.12,3.413-8.533,8.533-8.533H383c5.12,0,8.533,3.413,8.533,8.533
		C391.533,447.853,388.12,451.267,383,451.267z"/>
	<path d="M459.8,451.267h-25.6c-5.12,0-8.533-3.413-8.533-8.533c0-5.12,3.413-8.533,8.533-8.533h25.6
		c5.12,0,8.533,3.413,8.533,8.533C468.333,447.853,464.92,451.267,459.8,451.267z"/>
</g>
<g>
</g>
<g>
</g>
<g>
</g>
<g>
</g>
<g>
</g>
<g>
</g>
<g>
</g>
<g>
</g>
<g>
</g>
<g>
</g>
<g>
</g>
<g>
</g>
<g>
</g>
<g>
</g>
<g>
</g>
</svg>
