<svg xmlns="http://www.w3.org/2000/svg" width="501" height="367" viewBox="0 0 501 367" version="1.1"><path d="M 34.232 52 L 34.232 55.500 34.689 53.750 C 34.941 52.788, 34.941 51.212, 34.689 50.250 L 34.232 48.500 34.232 52 M 70.252 52.500 L 70.272 56.500 70.707 54.238 C 70.946 52.994, 70.937 51.194, 70.687 50.238 C 70.437 49.282, 70.241 50.300, 70.252 52.500 M 204.500 161.931 C 201.750 162.374, 196.071 163.503, 191.880 164.440 L 184.259 166.143 185.618 171.822 C 186.365 174.945, 188.349 183.800, 190.026 191.500 C 191.704 199.200, 193.515 207.146, 194.052 209.157 L 195.027 212.814 198.163 213.907 L 201.298 215 306.899 214.765 L 412.500 214.530 350.500 214.015 L 288.500 213.500 282 209.070 C 278.425 206.634, 271.414 200.532, 266.419 195.509 L 257.338 186.377 251.129 176.952 L 244.920 167.527 246.210 167.092 C 248.483 166.327, 226.806 162.115, 218 161.611 C 213.325 161.344, 207.250 161.488, 204.500 161.931" stroke="none" fill="#6989c5" fill-rule="evenodd"/><path d="M 391.500 161.730 C 386.170 162.149, 370.066 165.501, 356.500 169.015 L 345.500 171.865 332.292 173.432 L 319.083 175 305.792 174.991 L 292.500 174.982 279.500 173.478 C 272.350 172.650, 261.864 170.803, 256.198 169.372 C 250.532 167.941, 245.696 166.971, 245.452 167.215 C 245.207 167.460, 247.782 171.871, 251.173 177.018 L 257.338 186.377 266.419 195.520 L 275.500 204.662 282.489 209.331 L 289.479 214 351.239 214 L 413 214 414.750 212.249 L 416.500 210.499 419.382 197.999 C 420.967 191.125, 423.246 181.192, 424.447 175.926 L 426.630 166.351 416.065 164.204 C 404.791 161.913, 397.941 161.223, 391.500 161.730" stroke="none" fill="#7397da" fill-rule="evenodd"/><path d="M 42.075 23.645 C 36.074 25.745, 30.016 31.021, 26.005 37.639 L 22.674 43.136 22.620 51.860 L 22.567 60.585 25.274 65.205 C 26.763 67.746, 29.171 71.238, 30.624 72.965 L 33.267 76.106 39.383 79.270 L 45.500 82.434 52.500 82.400 L 59.500 82.367 64.103 80.282 C 66.635 79.135, 70.294 76.803, 72.235 75.099 L 75.764 72 81.783 72 L 87.802 72 90.507 83.750 C 94.704 101.982, 99.484 123.104, 103.011 139 C 104.780 146.975, 107.693 160.025, 109.484 168 C 111.274 175.975, 114.193 189.025, 115.968 197 C 117.744 204.975, 120.717 218.250, 122.574 226.500 C 124.431 234.750, 126.207 243.191, 126.522 245.258 L 127.093 249.015 129.441 250.553 L 131.788 252.091 134.420 251.431 L 137.053 250.770 138.042 248.921 L 139.031 247.073 136.078 234.786 C 134.453 228.029, 131.518 215.075, 129.555 206 C 127.592 196.925, 124.675 183.650, 123.072 176.500 C 116.197 145.824, 112.804 130.648, 109.883 117.500 C 108.172 109.800, 105.278 96.975, 103.452 89 C 101.626 81.025, 99.825 72.515, 99.451 70.090 L 98.770 65.679 96.430 63.340 L 94.091 61 88.295 61 L 82.500 61.001 82.500 52.502 L 82.500 44.003 89.500 44.007 C 93.350 44.009, 98.104 44.457, 100.065 45.002 L 103.631 45.992 107.673 49.453 L 111.716 52.913 113.755 57.706 C 114.876 60.343, 116.546 66.100, 117.465 70.500 C 118.384 74.900, 120.490 84.575, 122.145 92 C 125.454 106.848, 130.404 129.164, 135.010 150 C 137.838 162.795, 141.662 179.892, 147.982 208 C 149.528 214.875, 152.302 227.025, 154.145 235 L 157.498 249.500 160.712 253.081 L 163.927 256.662 167.829 257.831 L 171.732 259 308.943 259 L 446.154 259 449.077 261.923 L 452 264.846 452 268.249 L 452 271.651 449.420 274.076 L 446.839 276.500 313.170 276.773 L 179.500 277.045 170.762 276.075 L 162.024 275.104 154.968 270.912 L 147.911 266.719 145.483 267.826 L 143.055 268.932 142.370 271.662 L 141.685 274.393 145.709 277.964 L 149.734 281.536 156.412 284.278 L 163.091 287.021 169.795 287.991 C 173.483 288.524, 182.243 288.969, 189.263 288.980 L 202.025 289 199.470 293.048 L 196.914 297.096 195.852 302.798 L 194.790 308.500 195.416 314.686 C 196.103 321.469, 197.190 324.468, 201.148 330.500 C 204.866 336.165, 208.549 339.316, 215.941 343.155 L 222.382 346.500 231.441 346.500 L 240.500 346.500 247.394 342.620 C 255.482 338.069, 259.299 334.110, 263.744 325.664 L 266.987 319.500 266.981 310.500 L 266.975 301.500 263.987 295.609 C 262.344 292.369, 261 289.557, 261 289.359 C 261 289.162, 281.025 289, 305.500 289 C 329.975 289, 350 289.212, 350 289.470 C 350 289.729, 348.650 292.597, 347 295.844 L 344 301.747 344 310.436 L 344 319.124 346.545 324.504 C 347.945 327.463, 351.061 332.076, 353.468 334.754 L 357.846 339.623 364.621 343.061 L 371.396 346.500 380 346.500 L 388.604 346.500 395.379 343.061 L 402.154 339.623 406.497 334.792 C 408.886 332.135, 411.800 327.980, 412.972 325.558 L 415.103 321.155 415.679 314.286 L 416.255 307.417 415.137 302.204 C 414.522 299.336, 412.910 295.234, 411.555 293.087 L 409.090 289.183 428.295 288.822 L 447.500 288.461 451.500 286.328 C 456.106 283.872, 459.084 280.849, 461.383 276.300 L 463 273.099 463 268.010 L 463 262.920 461.097 259.210 C 458.602 254.345, 454.863 250.943, 450.242 249.333 L 446.500 248.030 309.396 248.015 L 172.292 248 169.840 245.727 L 167.388 243.455 165.651 234.977 C 164.696 230.315, 162.631 220.875, 161.061 214 C 159.491 207.125, 156.764 194.975, 155.001 187 C 153.237 179.025, 150.312 165.975, 148.500 158 C 146.688 150.025, 143.811 137.200, 142.106 129.500 C 135.675 100.452, 131.737 83.034, 128.318 68.500 L 124.789 53.500 122.662 50 C 121.492 48.075, 119.031 44.834, 117.194 42.798 L 113.853 39.095 107.522 36.011 L 101.190 32.926 95.345 31.969 C 92.130 31.442, 86.190 31.009, 82.144 31.006 L 74.788 31 71.144 28.169 C 69.140 26.612, 65.578 24.587, 63.230 23.669 L 58.960 22 52.730 22.048 L 46.500 22.095 42.075 23.645 M 46 33.672 C 45.175 34.012, 42.798 35.625, 40.718 37.255 L 36.935 40.219 35.468 43.732 L 34 47.244 34 52 L 34 56.756 35.453 60.233 C 36.252 62.145, 38.483 65.095, 40.411 66.787 L 43.916 69.865 48.451 70.545 L 52.987 71.225 56.743 70.529 C 58.809 70.146, 61.931 68.953, 63.679 67.878 L 66.859 65.924 69.429 60.766 L 72 55.607 72 52.016 L 72 48.424 69.750 44.020 L 67.500 39.616 63.713 36.603 L 59.926 33.590 53.713 33.321 C 50.296 33.173, 46.825 33.331, 46 33.672 M 159.500 46.850 C 158.400 47.207, 156.116 48.338, 154.424 49.363 L 151.348 51.226 149.696 55.683 L 148.043 60.141 149.600 67.821 C 150.455 72.044, 152.649 82.025, 154.475 90 C 156.300 97.975, 159.189 110.800, 160.894 118.500 C 165.263 138.234, 170.680 162.353, 174.032 177 C 175.606 183.875, 177.179 191.300, 177.529 193.500 C 177.879 195.700, 179.424 202.148, 180.963 207.829 L 183.761 218.158 186.941 221.439 L 190.120 224.720 193.926 225.860 L 197.732 227 305.500 227 L 413.268 227 417.066 225.862 L 420.863 224.724 424.335 221.112 L 427.807 217.500 431.314 203 C 433.244 195.025, 436.203 182.200, 437.890 174.500 C 439.578 166.800, 442.555 153.300, 444.507 144.500 C 446.459 135.700, 449.396 122.425, 451.034 115 C 452.672 107.575, 455.149 96.550, 456.538 90.500 C 457.928 84.450, 459.943 75.225, 461.017 70 L 462.970 60.500 461.473 56 L 459.977 51.500 456.239 49.015 L 452.500 46.530 439.225 46.166 L 425.950 45.803 423.416 47.463 L 420.882 49.123 421.191 52.289 L 421.500 55.454 424 56.712 L 426.500 57.971 438.643 57.985 L 450.786 58 451.323 59.399 C 451.618 60.169, 450.796 65.231, 449.496 70.649 C 448.196 76.067, 445.694 87.025, 443.936 95 C 442.178 102.975, 439.270 116.025, 437.474 124 C 435.679 131.975, 433.449 141.988, 432.519 146.250 C 431.590 150.513, 430.527 154, 430.158 154 C 429.789 154, 424.315 152.830, 417.993 151.400 L 406.500 148.800 394 149.285 L 381.500 149.770 368.500 152.861 C 361.350 154.561, 353.025 156.633, 350 157.465 C 346.975 158.298, 338.720 159.659, 331.655 160.490 L 318.810 162 305.155 161.980 L 291.500 161.960 279.146 160.497 L 266.793 159.034 255.646 156.100 C 249.516 154.486, 239.832 152.177, 234.128 150.968 L 223.755 148.771 211.128 149.284 L 198.500 149.796 190.500 151.886 C 186.100 153.036, 181.968 153.982, 181.318 153.988 L 180.136 154 178.528 146.250 C 176.419 136.083, 171.544 114.169, 168.463 101 C 167.112 95.225, 165.111 86, 164.016 80.500 C 162.922 75, 161.570 68.928, 161.013 67.007 C 160.456 65.085, 160 62.278, 160 60.769 L 160 58.024 279.450 57.762 L 398.900 57.500 399.987 56.413 C 400.584 55.816, 401.284 54.163, 401.542 52.740 L 402.011 50.154 399.371 48.077 L 396.730 46 279.115 46.100 C 214.427 46.155, 160.600 46.492, 159.500 46.850 M 243.169 88.942 L 239.839 89.780 236.793 92.640 C 233.473 95.758, 230.057 102.284, 230.022 105.576 L 230 107.651 232.314 109.826 C 235.081 112.425, 236.280 112.518, 239.535 110.385 L 242 108.770 242 105.956 L 242 103.143 243.506 101.637 C 244.334 100.809, 245.850 99.865, 246.874 99.540 L 248.736 98.949 251.270 99.913 L 253.804 100.876 255.028 104.688 C 257.282 111.705, 260.372 113.529, 264.777 110.443 L 267 108.887 267 105.115 L 267 101.343 263.883 96.636 L 260.765 91.930 257.900 90.448 C 254.246 88.559, 247.453 87.864, 243.169 88.942 M 356.594 88.986 C 353.203 90.065, 347.444 95.326, 345.415 99.200 C 344.637 100.686, 344 103.473, 344 105.394 L 344 108.887 346.223 110.443 C 347.445 111.299, 349.212 112, 350.150 112 L 351.855 112 353.927 109.365 C 355.067 107.916, 356 105.859, 356 104.794 C 356 102.485, 357.791 100.519, 360.747 99.580 L 362.900 98.897 365.936 100.467 L 368.971 102.036 369.545 104.768 C 370.313 108.421, 371.295 110.153, 373.325 111.433 L 375.017 112.500 377.759 110.968 L 380.500 109.437 380.834 106.533 L 381.169 103.630 378.998 98.997 L 376.828 94.363 373.490 91.699 L 370.151 89.035 364.825 88.549 L 359.500 88.062 356.594 88.986 M 288.635 117.073 L 286 119.145 286 120.938 C 286 121.924, 286.911 123.889, 288.025 125.304 L 290.049 127.878 295.463 130.439 L 300.876 133 305.742 133 L 310.607 133 315.800 130.412 C 321.328 127.658, 325 123.876, 325 120.938 L 325 119.145 322.365 117.073 C 319.006 114.431, 318.989 114.433, 314.500 118 L 310.725 121 305.397 121 L 300.070 121 296.653 118 C 292.596 114.438, 292.063 114.376, 288.635 117.073 M 202.500 160.642 C 200.850 160.900, 196.012 162.035, 191.750 163.165 L 184 165.219 184 168.636 C 184 170.515, 185.328 177.553, 186.952 184.276 C 188.575 190.999, 190.629 199.977, 191.515 204.227 L 193.126 211.954 195.698 213.977 L 198.270 216 306.046 216 L 413.822 216 416.210 213.162 L 418.597 210.325 420.378 200.912 C 421.358 195.736, 423.496 186.147, 425.131 179.605 C 426.765 173.063, 427.891 167.160, 427.633 166.487 L 427.164 165.263 418.871 163.026 L 410.578 160.788 400.976 160.259 L 391.373 159.730 384.437 160.908 C 380.621 161.556, 373.450 163.177, 368.500 164.510 C 363.550 165.844, 354.100 168.132, 347.500 169.595 L 335.500 172.255 320.830 172.883 C 312.762 173.229, 299.262 173.236, 290.830 172.899 L 275.500 172.287 263.500 169.545 C 256.900 168.038, 246.325 165.432, 240 163.755 L 228.500 160.706 217 160.439 C 210.675 160.292, 204.150 160.384, 202.500 160.642 M 213.265 293.329 L 209.274 297.658 207.513 302.960 L 205.752 308.262 206.321 313.062 C 207.068 319.372, 209.931 324.802, 214.857 329.252 L 218.858 332.867 222.679 333.928 C 227.623 335.301, 233.984 335.285, 239.540 333.886 L 243.966 332.771 248.483 328.254 L 253.001 323.736 254.500 318.686 C 256.388 312.332, 256.390 308.655, 254.511 302.432 L 253.022 297.500 248.936 293.250 L 244.850 289 231.052 289 L 217.255 289 213.265 293.329 M 362.326 293.250 L 358.236 297.500 356.494 302.881 L 354.752 308.262 355.315 313.011 C 355.624 315.624, 356.840 319.727, 358.017 322.131 L 360.156 326.500 363.614 329.380 C 365.517 330.965, 368.744 332.857, 370.787 333.587 L 374.500 334.912 380 334.912 L 385.500 334.912 389.213 333.587 C 391.256 332.857, 394.483 330.965, 396.386 329.380 L 399.844 326.500 401.983 322.131 C 403.160 319.727, 404.380 315.589, 404.694 312.935 L 405.266 308.109 403.554 302.804 L 401.843 297.500 397.713 293.250 L 393.584 289 380 289 L 366.416 289 362.326 293.250" stroke="none" fill="#010100" fill-rule="evenodd"/><path d="M 373.296 45.744 C 377.583 45.932, 384.333 45.931, 388.296 45.742 C 392.258 45.552, 388.750 45.399, 380.500 45.400 C 372.250 45.401, 369.008 45.556, 373.296 45.744 M 221.319 228.749 C 234.419 228.907, 255.569 228.907, 268.319 228.749 C 281.068 228.591, 270.350 228.461, 244.500 228.462 C 218.650 228.462, 208.218 228.591, 221.319 228.749 M 326.296 228.744 C 330.583 228.932, 337.333 228.931, 341.296 228.742 C 345.258 228.552, 341.750 228.399, 333.500 228.400 C 325.250 228.401, 322.008 228.556, 326.296 228.744 M 224.673 246.750 C 253.919 246.897, 302.069 246.897, 331.673 246.750 C 361.278 246.603, 337.350 246.482, 278.500 246.482 C 219.650 246.482, 195.428 246.603, 224.673 246.750 M 214.546 294.324 L 209.222 299.647 207.971 305.239 L 206.720 310.830 207.920 315.665 C 208.581 318.324, 210.310 322.230, 211.762 324.345 L 214.404 328.190 219.452 331.086 L 224.500 333.981 230.783 333.991 L 237.066 334 241.971 331.515 L 246.876 329.029 249.407 325.711 C 250.799 323.886, 252.627 320.744, 253.469 318.728 L 255 315.064 255 310.228 L 255 305.393 252.365 300.105 L 249.730 294.817 245.715 291.908 L 241.700 289 230.785 289 L 219.870 289 214.546 294.324 M 365.964 291.527 C 364.080 292.916, 361.315 295.876, 359.819 298.103 L 357.100 302.153 356.448 306.496 C 356.090 308.885, 356.101 312.640, 356.473 314.842 L 357.149 318.844 360.020 323.371 L 362.891 327.897 368.195 330.939 L 373.500 333.981 380 333.981 L 386.500 333.981 391.805 330.939 L 397.109 327.897 400.013 323.319 L 402.916 318.740 403.560 314.451 C 403.913 312.091, 403.895 308.336, 403.518 306.107 L 402.833 302.052 400.147 298.053 C 398.670 295.853, 395.920 292.916, 394.036 291.527 L 390.611 289 380 289 L 369.389 289 365.964 291.527 M 225.455 304.455 L 223 306.909 223 310.500 L 223 314.091 225.455 316.545 L 227.909 319 230.899 319 L 233.888 319 236.644 316.630 L 239.400 314.259 239.400 310.500 L 239.400 306.741 236.644 304.370 L 233.888 302 230.899 302 L 227.909 302 225.455 304.455 M 374.456 304.284 L 371.800 306.569 371.800 310.500 L 371.800 314.431 374.456 316.716 L 377.112 319 380 319 L 382.888 319 385.544 316.716 L 388.200 314.431 388.200 310.500 L 388.200 306.569 385.544 304.284 L 382.888 302 380 302 L 377.112 302 374.456 304.284" stroke="none" fill="#a9aaab" fill-rule="evenodd"/><path d="M 298.762 161.707 C 300.006 161.946, 301.806 161.937, 302.762 161.687 C 303.718 161.437, 302.700 161.241, 300.500 161.252 L 296.500 161.272 298.762 161.707 M 308.762 161.707 C 310.006 161.946, 311.806 161.937, 312.762 161.687 C 313.718 161.437, 312.700 161.241, 310.500 161.252 L 306.500 161.272 308.762 161.707 M 226.500 303.765 C 225.950 304.169, 224.839 305.400, 224.030 306.500 L 222.561 308.500 225.280 306.076 C 227.728 303.894, 228.473 302.971, 227.750 303.015 C 227.613 303.024, 227.050 303.361, 226.500 303.765" stroke="none" fill="#4e575e" fill-rule="evenodd"/><path d="M 51.250 21.689 C 52.212 21.941, 53.788 21.941, 54.750 21.689 L 56.500 21.232 53 21.232 L 49.500 21.232 51.250 21.689 M 83.272 52 L 83.272 56.500 83.706 54.250 C 83.944 53.013, 83.944 50.987, 83.706 49.750 L 83.272 47.500 83.272 52 M 108.492 51.004 C 113.234 56.544, 113.299 56.605, 112.214 54.500 C 111.647 53.400, 109.905 51.377, 108.342 50.004 L 105.500 47.507 108.492 51.004 M 82.015 59.250 L 82 61 87.750 60.820 L 93.500 60.640 88.519 60.256 L 83.539 59.872 82.785 58.686 L 82.031 57.500 82.015 59.250 M 349.437 93.250 L 346.500 96.500 349.750 93.563 C 352.779 90.825, 353.460 90, 352.687 90 C 352.515 90, 351.052 91.463, 349.437 93.250 M 369.136 106.128 L 369 108.755 370.750 110.128 L 372.500 111.500 371.346 110 C 370.711 109.175, 369.985 107.375, 369.732 106 L 369.272 103.500 369.136 106.128 M 212.264 148.718 C 213.784 148.947, 216.034 148.941, 217.264 148.704 C 218.494 148.467, 217.250 148.279, 214.500 148.286 L 209.500 148.300 212.264 148.718 M 394.264 148.718 C 395.784 148.947, 398.034 148.941, 399.264 148.704 C 400.494 148.467, 399.250 148.279, 396.500 148.286 L 391.500 148.300 394.264 148.718 M 209.784 160.738 C 212.689 160.941, 217.189 160.939, 219.784 160.734 C 222.378 160.528, 220 160.363, 214.500 160.365 L 204.500 160.370 209.784 160.738 M 391.784 160.738 C 394.689 160.941, 399.189 160.939, 401.784 160.734 C 404.378 160.528, 402 160.363, 396.500 160.365 L 386.500 160.370 391.784 160.738 M 290.250 173.735 C 292.863 173.941, 297.137 173.941, 299.750 173.735 L 304.500 173.360 295 173.360 L 285.500 173.360 290.250 173.735 M 312.280 173.736 C 314.909 173.943, 318.959 173.940, 321.280 173.731 C 323.601 173.521, 321.450 173.352, 316.500 173.355 L 307.500 173.360 312.280 173.736 M 149.199 215.500 C 149.199 216.600, 149.560 218.625, 150 220 L 150.801 222.500 150.801 220.500 C 150.801 219.400, 150.440 217.375, 150 216 L 149.199 213.500 149.199 215.500 M 240.250 259.750 C 278.063 259.895, 339.938 259.895, 377.750 259.750 C 415.563 259.605, 384.625 259.486, 309 259.486 C 233.375 259.486, 202.438 259.605, 240.250 259.750 M 149.083 267.303 C 149.313 267.469, 150.850 268.396, 152.500 269.362 L 155.500 271.119 153.139 269.059 C 151.841 267.927, 150.303 267, 149.723 267 C 149.142 267, 148.854 267.136, 149.083 267.303 M 451.079 270.177 C 451.036 271.100, 449.814 272.788, 448.365 273.927 C 446.916 275.067, 446.163 276, 446.691 276 C 447.219 276, 448.678 274.907, 449.933 273.571 L 452.214 271.143 451.686 269.821 L 451.158 268.500 451.079 270.177 M 159.441 273.445 C 160.509 274.300, 162.084 274.964, 162.941 274.921 L 164.500 274.842 163 274.286 C 162.175 273.980, 160.600 273.316, 159.500 272.810 L 157.500 271.890 159.441 273.445 M 241.750 276.750 C 278.737 276.895, 339.262 276.895, 376.250 276.750 C 413.237 276.605, 382.975 276.486, 309 276.486 C 235.025 276.486, 204.762 276.605, 241.750 276.750 M 267.310 310.500 L 267.320 316.500 267.725 313.232 C 267.947 311.435, 267.943 308.735, 267.715 307.232 C 267.486 305.729, 267.304 307.200, 267.310 310.500 M 257.437 335.250 L 254.500 338.500 257.750 335.563 C 260.779 332.825, 261.460 332, 260.687 332 C 260.515 332, 259.052 333.462, 257.437 335.250 M 354 336.500 C 355.866 338.425, 357.617 340, 357.892 340 C 358.167 340, 356.866 338.425, 355 336.500 C 353.134 334.575, 351.383 333, 351.108 333 C 350.833 333, 352.134 334.575, 354 336.500 M 404.946 336.750 L 401.500 340.500 405.250 337.054 C 407.313 335.158, 409 333.471, 409 333.304 C 409 332.540, 408.154 333.260, 404.946 336.750" stroke="none" fill="#040505" fill-rule="evenodd"/><path d="M 221.044 110.577 C 215.953 112.786, 211.483 116.483, 208.952 120.578 L 206.714 124.198 206.714 129.584 L 206.714 134.970 209.366 138.976 C 210.824 141.180, 213.701 144.051, 215.759 145.357 L 219.500 147.731 230.566 148.975 L 241.633 150.220 246.656 147.674 L 251.680 145.128 254.785 141.592 L 257.891 138.055 258.940 134.277 C 260.234 129.619, 260.234 129.381, 258.940 124.723 L 257.891 120.945 254.790 117.414 C 251.847 114.062, 245.370 110, 242.968 110 C 242.357 110, 241.182 110.675, 240.357 111.500 L 238.857 113 235.929 113 L 233 113 231 111 L 229 109 226.750 109.039 C 225.512 109.061, 222.945 109.753, 221.044 110.577 M 380.232 111 L 378.983 113 375.614 113 L 372.245 113 371 111.500 C 369.357 109.520, 367.683 109.608, 363.210 111.908 C 358.077 114.549, 354.359 118.732, 352.525 123.930 L 350.972 128.332 351.619 131.916 C 352.972 139.397, 357.323 144.488, 365.428 148.072 L 370.357 150.251 380.928 148.980 C 386.743 148.281, 392.625 147.140, 394 146.444 C 399.626 143.596, 405 135.318, 405 129.500 C 405 125.862, 402.354 119.991, 399.197 116.624 C 396.039 113.255, 387.588 109.024, 383.991 109.010 L 381.481 109 380.232 111 M 151.892 123.614 L 147.285 126.180 145.660 129.586 L 144.036 132.993 146.898 145.247 C 149.603 156.825, 150.914 162.649, 159.565 201.500 C 167.070 235.204, 169.074 243.385, 170.142 244.671 L 171.245 246 231.229 246 L 291.214 246 290.611 244.428 C 290.279 243.563, 290.507 240.873, 291.117 238.448 L 292.227 234.041 291.604 231.557 L 290.980 229.073 243.240 228.787 L 195.500 228.500 191.237 226.223 L 186.973 223.946 184.042 219.899 L 181.110 215.852 179.937 210.176 C 179.291 207.054, 177.300 197.975, 175.511 190 C 173.722 182.025, 170.801 168.975, 169.020 161 C 162.840 133.334, 160.836 124.491, 160.352 122.750 L 159.865 121 158.183 121.024 C 157.257 121.038, 154.427 122.203, 151.892 123.614 M 319 232.051 L 319 235.102 322.250 236.420 C 324.038 237.145, 329.166 238.029, 333.646 238.384 L 341.792 239.029 344.335 238.063 C 345.734 237.531, 347.381 236.157, 347.995 235.010 L 349.111 232.924 348.488 230.962 L 347.865 229 333.433 229 L 319 229 319 232.051" stroke="none" fill="#ffffff" fill-rule="evenodd"/><path d="M 44.500 36.871 C 33.303 43.825, 31.828 56.077, 41.132 64.856 L 44.500 68.034 48.154 69.146 L 51.807 70.259 55.292 69.605 L 58.776 68.951 63.201 65.573 L 67.625 62.195 68.813 58.231 C 70.542 52.459, 70.283 48.985, 67.750 43.966 L 65.500 39.508 61.500 37.271 L 57.500 35.033 52.500 35.020 L 47.500 35.007 44.500 36.871 M 403 53.845 C 403 54.860, 402.177 56.435, 401.171 57.345 L 399.343 59 307.171 59 L 215 59 215.003 61.750 C 215.007 64.670, 217.138 77.894, 219.476 89.500 C 220.251 93.350, 221.426 99.450, 222.088 103.056 L 223.290 109.611 226.145 109.192 L 229 108.773 229 104.037 L 229 99.300 231.987 95.177 L 234.973 91.054 238.783 89.111 C 240.879 88.042, 244.233 86.859, 246.237 86.483 L 249.881 85.800 254.766 87.422 L 259.651 89.045 262.764 92.272 C 266.600 96.249, 268 99.804, 268 105.565 L 268 110 266 112 L 264 114 261.455 114 L 258.909 114 256.455 111.545 L 254 109.091 253.985 106.795 C 253.965 103.793, 252.995 102.424, 250.288 101.579 L 248.076 100.889 246.060 101.968 L 244.045 103.046 243.215 106.250 L 242.385 109.453 246.950 111.568 L 251.515 113.683 254.703 117.314 L 257.891 120.945 258.940 124.723 C 260.234 129.381, 260.234 129.619, 258.940 134.277 L 257.891 138.055 254.785 141.592 C 251.610 145.209, 243.483 149.953, 240.283 150.059 C 238.511 150.117, 242.543 151.170, 265.500 156.640 L 277.500 159.500 306 159.489 L 334.500 159.477 345.500 156.776 C 351.550 155.290, 359.931 153.291, 364.124 152.333 L 371.749 150.592 366.238 148.352 C 357.641 144.858, 353.019 139.661, 351.619 131.916 L 350.972 128.332 352.525 123.930 C 354.491 118.356, 358.253 114.334, 364.058 111.600 L 368.615 109.453 367.785 106.250 L 366.955 103.046 364.940 101.968 L 362.924 100.889 360.712 101.579 C 357.924 102.449, 357.035 103.796, 357.015 107.177 L 357 109.855 354.365 111.927 L 351.730 114 349.404 114 L 347.078 114 345.039 111.811 L 343 109.623 343 105.961 C 343 98.041, 346.430 92.407, 353.500 88.718 L 357.500 86.630 362.500 86.601 L 367.500 86.573 371.956 89.036 L 376.411 91.500 379.326 95.652 L 382.241 99.804 382.371 104.396 L 382.500 108.988 384.500 109.004 C 387.670 109.029, 396.244 113.474, 399.197 116.624 C 402.437 120.079, 405.008 125.903, 404.978 129.718 C 404.945 133.937, 401.726 140.155, 397.784 143.616 L 394.255 146.715 403.377 147.324 L 412.500 147.933 420.442 149.975 L 428.384 152.016 429.059 151.258 C 429.741 150.493, 432.116 140.595, 437.999 114 C 439.764 106.025, 442.509 93.875, 444.101 87 C 448.158 69.474, 449.857 60.624, 449.332 59.750 L 448.882 59 436.130 59 L 423.377 59 421.189 56.961 C 419.985 55.840, 419 54.265, 419 53.461 L 419 52 411 52 L 403 52 403 53.845 M 288.280 114.982 L 286.060 115.913 285.422 118.457 C 285.070 119.856, 285.058 122.096, 285.394 123.435 L 286.006 125.871 290.659 129.685 L 295.313 133.500 304.054 133.846 L 312.795 134.191 316.147 132.558 C 317.991 131.659, 320.771 129.885, 322.325 128.615 L 325.149 126.306 325.651 122.403 L 326.152 118.500 324.673 116.523 L 323.194 114.545 319.262 114.545 L 315.329 114.545 312.088 117.273 L 308.847 120 305.500 120 L 302.153 120 299.176 117.495 C 295.759 114.620, 291.491 113.635, 288.280 114.982" stroke="none" fill="#81bbe7" fill-rule="evenodd"/><path d="M 42.075 23.645 C 36.074 25.745, 30.016 31.021, 26.005 37.639 L 22.674 43.136 22.620 51.860 L 22.567 60.585 25.274 65.205 C 26.763 67.746, 29.171 71.238, 30.624 72.965 L 33.267 76.106 39.383 79.270 L 45.500 82.434 52.500 82.400 L 59.500 82.367 64.103 80.282 C 66.635 79.135, 70.294 76.803, 72.235 75.099 L 75.764 72 81.783 72 L 87.802 72 90.507 83.750 C 94.704 101.982, 99.484 123.104, 103.011 139 C 104.780 146.975, 107.693 160.025, 109.484 168 C 111.274 175.975, 114.193 189.025, 115.968 197 C 117.744 204.975, 120.717 218.250, 122.574 226.500 C 124.431 234.750, 126.207 243.191, 126.522 245.258 L 127.093 249.015 129.441 250.553 L 131.788 252.091 134.420 251.431 L 137.053 250.770 138.042 248.921 L 139.031 247.073 136.078 234.786 C 134.453 228.029, 131.518 215.075, 129.555 206 C 127.592 196.925, 124.675 183.650, 123.072 176.500 C 116.197 145.824, 112.804 130.648, 109.883 117.500 C 108.172 109.800, 105.278 96.975, 103.452 89 C 101.626 81.025, 99.825 72.515, 99.451 70.090 L 98.770 65.679 96.430 63.340 L 94.091 61 88.295 61 L 82.500 61.001 82.500 52.502 L 82.500 44.003 89.500 44.007 C 93.350 44.009, 98.104 44.457, 100.065 45.002 L 103.631 45.992 107.673 49.453 L 111.716 52.913 113.755 57.706 C 114.876 60.343, 116.546 66.100, 117.465 70.500 C 118.384 74.900, 120.490 84.575, 122.145 92 C 125.454 106.848, 130.404 129.164, 135.010 150 C 137.838 162.795, 141.662 179.892, 147.982 208 C 149.528 214.875, 152.302 227.025, 154.145 235 L 157.498 249.500 160.712 253.081 L 163.927 256.662 167.829 257.831 L 171.732 259 308.943 259 L 446.154 259 449.077 261.923 L 452 264.846 452 268.249 L 452 271.651 449.420 274.076 L 446.839 276.500 313.170 276.773 L 179.500 277.045 170.762 276.075 L 162.024 275.104 154.968 270.912 L 147.911 266.719 145.483 267.826 L 143.055 268.932 142.370 271.662 L 141.685 274.393 145.709 277.964 L 149.734 281.536 156.412 284.278 L 163.091 287.021 169.795 287.991 C 173.483 288.524, 182.243 288.969, 189.263 288.980 L 202.025 289 199.470 293.048 L 196.914 297.096 195.852 302.798 L 194.790 308.500 195.416 314.686 C 196.103 321.469, 197.190 324.468, 201.148 330.500 C 204.866 336.165, 208.549 339.316, 215.941 343.155 L 222.382 346.500 231.441 346.500 L 240.500 346.500 247.394 342.620 C 255.482 338.069, 259.299 334.110, 263.744 325.664 L 266.987 319.500 266.981 310.500 L 266.975 301.500 263.987 295.609 C 262.344 292.369, 261 289.557, 261 289.359 C 261 289.162, 281.025 289, 305.500 289 C 329.975 289, 350 289.212, 350 289.470 C 350 289.729, 348.650 292.597, 347 295.844 L 344 301.747 344 310.436 L 344 319.124 346.545 324.504 C 347.945 327.463, 351.061 332.076, 353.468 334.754 L 357.846 339.623 364.621 343.061 L 371.396 346.500 380 346.500 L 388.604 346.500 395.379 343.061 L 402.154 339.623 406.497 334.792 C 408.886 332.135, 411.800 327.980, 412.972 325.558 L 415.103 321.155 415.679 314.286 L 416.255 307.417 415.137 302.204 C 414.522 299.336, 412.910 295.234, 411.555 293.087 L 409.090 289.183 428.295 288.822 L 447.500 288.461 451.500 286.328 C 456.106 283.872, 459.084 280.849, 461.383 276.300 L 463 273.099 463 268.010 L 463 262.920 461.097 259.210 C 458.602 254.345, 454.863 250.943, 450.242 249.333 L 446.500 248.030 309.396 248.015 L 172.292 248 169.840 245.727 L 167.388 243.455 165.651 234.977 C 164.696 230.315, 162.631 220.875, 161.061 214 C 159.491 207.125, 156.764 194.975, 155.001 187 C 153.237 179.025, 150.312 165.975, 148.500 158 C 146.688 150.025, 143.811 137.200, 142.106 129.500 C 135.675 100.452, 131.737 83.034, 128.318 68.500 L 124.789 53.500 122.662 50 C 121.492 48.075, 119.031 44.834, 117.194 42.798 L 113.853 39.095 107.522 36.011 L 101.190 32.926 95.345 31.969 C 92.130 31.442, 86.190 31.009, 82.144 31.006 L 74.788 31 71.144 28.169 C 69.140 26.612, 65.578 24.587, 63.230 23.669 L 58.960 22 52.730 22.048 L 46.500 22.095 42.075 23.645 M 46 33.672 C 45.175 34.012, 42.798 35.625, 40.718 37.255 L 36.935 40.219 35.468 43.732 L 34 47.244 34 52 L 34 56.756 35.453 60.233 C 36.252 62.145, 38.483 65.095, 40.411 66.787 L 43.916 69.865 48.451 70.545 L 52.987 71.225 56.743 70.529 C 58.809 70.146, 61.931 68.953, 63.679 67.878 L 66.859 65.924 69.429 60.766 L 72 55.607 72 52.016 L 72 48.424 69.750 44.020 L 67.500 39.616 63.713 36.603 L 59.926 33.590 53.713 33.321 C 50.296 33.173, 46.825 33.331, 46 33.672 M 159.500 46.850 C 158.400 47.207, 156.116 48.338, 154.424 49.363 L 151.348 51.226 149.696 55.683 L 148.043 60.141 149.600 67.821 C 150.455 72.044, 152.649 82.025, 154.475 90 C 156.300 97.975, 159.189 110.800, 160.894 118.500 C 165.263 138.234, 170.680 162.353, 174.032 177 C 175.606 183.875, 177.179 191.300, 177.529 193.500 C 177.879 195.700, 179.424 202.148, 180.963 207.829 L 183.761 218.158 186.941 221.439 L 190.120 224.720 193.926 225.860 L 197.732 227 305.500 227 L 413.268 227 417.066 225.862 L 420.863 224.724 424.335 221.112 L 427.807 217.500 431.314 203 C 433.244 195.025, 436.203 182.200, 437.890 174.500 C 439.578 166.800, 442.555 153.300, 444.507 144.500 C 446.459 135.700, 449.396 122.425, 451.034 115 C 452.672 107.575, 455.149 96.550, 456.538 90.500 C 457.928 84.450, 459.943 75.225, 461.017 70 L 462.970 60.500 461.473 56 L 459.977 51.500 456.239 49.015 L 452.500 46.530 439.225 46.166 L 425.950 45.803 423.416 47.463 L 420.882 49.123 421.191 52.289 L 421.500 55.454 424 56.712 L 426.500 57.971 438.643 57.985 L 450.786 58 451.323 59.399 C 451.618 60.169, 450.796 65.231, 449.496 70.649 C 448.196 76.067, 445.694 87.025, 443.936 95 C 442.178 102.975, 439.270 116.025, 437.474 124 C 435.679 131.975, 433.449 141.988, 432.519 146.250 C 431.590 150.513, 430.527 154, 430.158 154 C 429.789 154, 424.315 152.830, 417.993 151.400 L 406.500 148.800 394 149.285 L 381.500 149.770 368.500 152.861 C 361.350 154.561, 353.025 156.633, 350 157.465 C 346.975 158.298, 338.720 159.659, 331.655 160.490 L 318.810 162 305.155 161.980 L 291.500 161.960 279.146 160.497 L 266.793 159.034 255.646 156.100 C 249.516 154.486, 239.832 152.177, 234.128 150.968 L 223.755 148.771 211.128 149.284 L 198.500 149.796 190.500 151.886 C 186.100 153.036, 181.968 153.982, 181.318 153.988 L 180.136 154 178.528 146.250 C 176.419 136.083, 171.544 114.169, 168.463 101 C 167.112 95.225, 165.111 86, 164.016 80.500 C 162.922 75, 161.570 68.928, 161.013 67.007 C 160.456 65.085, 160 62.278, 160 60.769 L 160 58.024 279.450 57.762 L 398.900 57.500 399.987 56.413 C 400.584 55.816, 401.284 54.163, 401.542 52.740 L 402.011 50.154 399.371 48.077 L 396.730 46 279.115 46.100 C 214.427 46.155, 160.600 46.492, 159.500 46.850 M 243.169 88.942 L 239.839 89.780 236.793 92.640 C 233.473 95.758, 230.057 102.284, 230.022 105.576 L 230 107.651 232.314 109.826 C 235.081 112.425, 236.280 112.518, 239.535 110.385 L 242 108.770 242 105.956 L 242 103.143 243.506 101.637 C 244.334 100.809, 245.850 99.865, 246.874 99.540 L 248.736 98.949 251.270 99.913 L 253.804 100.876 255.028 104.688 C 257.282 111.705, 260.372 113.529, 264.777 110.443 L 267 108.887 267 105.115 L 267 101.343 263.883 96.636 L 260.765 91.930 257.900 90.448 C 254.246 88.559, 247.453 87.864, 243.169 88.942 M 356.594 88.986 C 353.203 90.065, 347.444 95.326, 345.415 99.200 C 344.637 100.686, 344 103.473, 344 105.394 L 344 108.887 346.223 110.443 C 347.445 111.299, 349.212 112, 350.150 112 L 351.855 112 353.927 109.365 C 355.067 107.916, 356 105.859, 356 104.794 C 356 102.485, 357.791 100.519, 360.747 99.580 L 362.900 98.897 365.936 100.467 L 368.971 102.036 369.545 104.768 C 370.313 108.421, 371.295 110.153, 373.325 111.433 L 375.017 112.500 377.759 110.968 L 380.500 109.437 380.834 106.533 L 381.169 103.630 378.998 98.997 L 376.828 94.363 373.490 91.699 L 370.151 89.035 364.825 88.549 L 359.500 88.062 356.594 88.986 M 288.635 117.073 L 286 119.145 286 120.938 C 286 121.924, 286.911 123.889, 288.025 125.304 L 290.049 127.878 295.463 130.439 L 300.876 133 305.742 133 L 310.607 133 315.800 130.412 C 321.328 127.658, 325 123.876, 325 120.938 L 325 119.145 322.365 117.073 C 319.006 114.431, 318.989 114.433, 314.500 118 L 310.725 121 305.397 121 L 300.070 121 296.653 118 C 292.596 114.438, 292.063 114.376, 288.635 117.073 M 202.500 160.642 C 200.850 160.900, 196.012 162.035, 191.750 163.165 L 184 165.219 184 168.636 C 184 170.515, 185.328 177.553, 186.952 184.276 C 188.575 190.999, 190.629 199.977, 191.515 204.227 L 193.126 211.954 195.698 213.977 L 198.270 216 306.046 216 L 413.822 216 416.210 213.162 L 418.597 210.325 420.378 200.912 C 421.358 195.736, 423.496 186.147, 425.131 179.605 C 426.765 173.063, 427.891 167.160, 427.633 166.487 L 427.164 165.263 418.871 163.026 L 410.578 160.788 400.976 160.259 L 391.373 159.730 384.437 160.908 C 380.621 161.556, 373.450 163.177, 368.500 164.510 C 363.550 165.844, 354.100 168.132, 347.500 169.595 L 335.500 172.255 320.830 172.883 C 312.762 173.229, 299.262 173.236, 290.830 172.899 L 275.500 172.287 263.500 169.545 C 256.900 168.038, 246.325 165.432, 240 163.755 L 228.500 160.706 217 160.439 C 210.675 160.292, 204.150 160.384, 202.500 160.642 M 213.265 293.329 L 209.274 297.658 207.513 302.960 L 205.752 308.262 206.321 313.062 C 207.068 319.372, 209.931 324.802, 214.857 329.252 L 218.858 332.867 222.679 333.928 C 227.623 335.301, 233.984 335.285, 239.540 333.886 L 243.966 332.771 248.483 328.254 L 253.001 323.736 254.500 318.686 C 256.388 312.332, 256.390 308.655, 254.511 302.432 L 253.022 297.500 248.936 293.250 L 244.850 289 231.052 289 L 217.255 289 213.265 293.329 M 362.326 293.250 L 358.236 297.500 356.494 302.881 L 354.752 308.262 355.315 313.011 C 355.624 315.624, 356.840 319.727, 358.017 322.131 L 360.156 326.500 363.614 329.380 C 365.517 330.965, 368.744 332.857, 370.787 333.587 L 374.500 334.912 380 334.912 L 385.500 334.912 389.213 333.587 C 391.256 332.857, 394.483 330.965, 396.386 329.380 L 399.844 326.500 401.983 322.131 C 403.160 319.727, 404.380 315.589, 404.694 312.935 L 405.266 308.109 403.554 302.804 L 401.843 297.500 397.713 293.250 L 393.584 289 380 289 L 366.416 289 362.326 293.250" stroke="none" fill="#010100" fill-rule="evenodd"/><path d="M 84.158 51.862 L 84.158 60 89.579 60 L 95 60 96.880 61.880 L 98.760 63.760 101.786 76.630 C 103.451 83.709, 106.249 96.025, 108.005 104 C 109.760 111.975, 112.264 123.225, 113.567 129 C 117.247 145.297, 120.849 161.459, 123.485 173.500 C 124.809 179.550, 128.842 197.717, 132.446 213.872 C 136.051 230.027, 139 244.616, 139 246.293 L 139 249.343 137.341 251.175 L 135.683 253.008 137.063 257.191 C 137.822 259.491, 139.483 262.609, 140.753 264.119 L 143.063 266.864 146.445 266.315 L 149.827 265.766 153.354 268.457 C 155.295 269.937, 159.271 272.127, 162.191 273.324 L 167.500 275.500 305.500 275.768 L 443.500 276.035 446.164 274.932 L 448.828 273.828 450.005 270.988 L 451.182 268.147 450.525 266.080 C 450.164 264.942, 449.191 263.334, 448.363 262.506 L 446.857 261 312.065 261 L 177.273 261 172.172 260.033 L 167.072 259.065 163.663 256.831 C 161.789 255.602, 159.117 252.775, 157.726 250.549 L 155.197 246.500 154.033 240.500 C 153.393 237.200, 151.585 228.875, 150.016 222 C 146.575 206.924, 137.876 168.044, 130.997 137 C 122.411 98.249, 113.969 60.785, 113.340 58.639 C 112.455 55.618, 105.941 49.010, 101.729 46.862 L 97.822 44.869 90.990 44.296 L 84.158 43.723 84.158 51.862 M 297.250 174.689 C 298.212 174.941, 299.788 174.941, 300.750 174.689 L 302.500 174.232 299 174.232 L 295.500 174.232 297.250 174.689 M 310.250 174.689 C 311.212 174.941, 312.788 174.941, 313.750 174.689 L 315.500 174.232 312 174.232 L 308.500 174.232 310.250 174.689 M 225.588 305.909 L 222.801 308.817 223.464 311.835 L 224.127 314.853 226.528 316.426 C 227.849 317.292, 230.091 318, 231.510 318 L 234.091 318 236.545 315.545 L 239 313.091 239 310.680 L 239 308.270 236.927 305.635 L 234.855 303 231.615 303 L 228.374 303 225.588 305.909 M 373.991 306.012 L 371.846 309.024 372.502 312.011 L 373.158 314.998 375.302 316.499 C 376.481 317.324, 378.715 318, 380.268 318 L 383.091 318 385.545 315.545 L 388 313.091 388 310.950 C 388 309.772, 387.069 307.502, 385.932 305.904 L 383.864 303 380 303 L 376.136 303 373.991 306.012" stroke="none" fill="#485058" fill-rule="evenodd"/><path d="M 161.682 59.750 C 161.082 60.782, 163.783 73.762, 172.557 112 C 173.882 117.775, 176.100 127.675, 177.486 134 C 178.872 140.325, 180.462 147.138, 181.019 149.140 L 182.033 152.780 188.267 150.759 L 194.500 148.739 206.308 148.244 L 218.117 147.749 215.038 145.877 L 211.959 144.004 208.979 139.306 L 206 134.608 206 129.764 L 206 124.920 207.962 121.074 L 209.924 117.228 213.818 114.144 C 215.960 112.448, 218.868 110.621, 220.280 110.084 L 222.848 109.107 221.467 103.190 C 220.272 98.069, 216.479 76.409, 214.472 63.250 L 213.824 59 187.971 59 L 162.118 59 161.682 59.750" stroke="none" fill="#77acd5" fill-rule="evenodd"/><path d="M 44.500 36.871 C 33.303 43.825, 31.828 56.077, 41.132 64.856 L 44.500 68.034 48.154 69.146 L 51.807 70.259 55.292 69.605 L 58.776 68.951 63.201 65.573 L 67.625 62.195 68.813 58.231 C 70.542 52.459, 70.283 48.985, 67.750 43.966 L 65.500 39.508 61.500 37.271 L 57.500 35.033 52.500 35.020 L 47.500 35.007 44.500 36.871 M 403 53.845 C 403 54.860, 402.177 56.435, 401.171 57.345 L 399.343 59 307.171 59 L 215 59 215.003 61.750 C 215.007 64.670, 217.138 77.894, 219.476 89.500 C 220.251 93.350, 221.426 99.450, 222.088 103.056 L 223.290 109.611 226.145 109.192 L 229 108.773 229 104.037 L 229 99.300 231.987 95.177 L 234.973 91.054 238.783 89.111 C 240.879 88.042, 244.233 86.859, 246.237 86.483 L 249.881 85.800 254.766 87.422 L 259.651 89.045 262.764 92.272 C 266.600 96.249, 268 99.804, 268 105.565 L 268 110 266 112 L 264 114 261.455 114 L 258.909 114 256.455 111.545 L 254 109.091 253.985 106.795 C 253.965 103.793, 252.995 102.424, 250.288 101.579 L 248.076 100.889 246.060 101.968 L 244.045 103.046 243.215 106.250 L 242.385 109.453 246.950 111.568 L 251.515 113.683 254.703 117.314 L 257.891 120.945 258.940 124.723 C 260.234 129.381, 260.234 129.619, 258.940 134.277 L 257.891 138.055 254.785 141.592 C 251.610 145.209, 243.483 149.953, 240.283 150.059 C 238.511 150.117, 242.543 151.170, 265.500 156.640 L 277.500 159.500 306 159.489 L 334.500 159.477 345.500 156.776 C 351.550 155.290, 359.931 153.291, 364.124 152.333 L 371.749 150.592 366.238 148.352 C 357.641 144.858, 353.019 139.661, 351.619 131.916 L 350.972 128.332 352.525 123.930 C 354.491 118.356, 358.253 114.334, 364.058 111.600 L 368.615 109.453 367.785 106.250 L 366.955 103.046 364.940 101.968 L 362.924 100.889 360.712 101.579 C 357.924 102.449, 357.035 103.796, 357.015 107.177 L 357 109.855 354.365 111.927 L 351.730 114 349.404 114 L 347.078 114 345.039 111.811 L 343 109.623 343 105.961 C 343 98.041, 346.430 92.407, 353.500 88.718 L 357.500 86.630 362.500 86.601 L 367.500 86.573 371.956 89.036 L 376.411 91.500 379.326 95.652 L 382.241 99.804 382.371 104.396 L 382.500 108.988 384.500 109.004 C 387.670 109.029, 396.244 113.474, 399.197 116.624 C 402.437 120.079, 405.008 125.903, 404.978 129.718 C 404.945 133.937, 401.726 140.155, 397.784 143.616 L 394.255 146.715 403.377 147.324 L 412.500 147.933 420.442 149.975 L 428.384 152.016 429.059 151.258 C 429.741 150.493, 432.116 140.595, 437.999 114 C 439.764 106.025, 442.509 93.875, 444.101 87 C 448.158 69.474, 449.857 60.624, 449.332 59.750 L 448.882 59 436.130 59 L 423.377 59 421.189 56.961 C 419.985 55.840, 419 54.265, 419 53.461 L 419 52 411 52 L 403 52 403 53.845 M 288.280 114.982 L 286.060 115.913 285.422 118.457 C 285.070 119.856, 285.058 122.096, 285.394 123.435 L 286.006 125.871 290.659 129.685 L 295.313 133.500 304.054 133.846 L 312.795 134.191 316.147 132.558 C 317.991 131.659, 320.771 129.885, 322.325 128.615 L 325.149 126.306 325.651 122.403 L 326.152 118.500 324.673 116.523 L 323.194 114.545 319.262 114.545 L 315.329 114.545 312.088 117.273 L 308.847 120 305.500 120 L 302.153 120 299.176 117.495 C 295.759 114.620, 291.491 113.635, 288.280 114.982" stroke="none" fill="#81bbe7" fill-rule="evenodd"/><path d="M 42.075 23.645 C 36.074 25.745, 30.016 31.021, 26.005 37.639 L 22.674 43.136 22.620 51.860 L 22.567 60.585 25.274 65.205 C 26.763 67.746, 29.171 71.238, 30.624 72.965 L 33.267 76.106 39.383 79.270 L 45.500 82.434 52.500 82.400 L 59.500 82.367 64.103 80.282 C 66.635 79.135, 70.294 76.803, 72.235 75.099 L 75.764 72 81.783 72 L 87.802 72 90.507 83.750 C 94.704 101.982, 99.484 123.104, 103.011 139 C 104.780 146.975, 107.693 160.025, 109.484 168 C 111.274 175.975, 114.193 189.025, 115.968 197 C 117.744 204.975, 120.717 218.250, 122.574 226.500 C 124.431 234.750, 126.207 243.191, 126.522 245.258 L 127.093 249.015 129.441 250.553 L 131.788 252.091 134.420 251.431 L 137.053 250.770 138.042 248.921 L 139.031 247.073 136.078 234.786 C 134.453 228.029, 131.518 215.075, 129.555 206 C 127.592 196.925, 124.675 183.650, 123.072 176.500 C 116.197 145.824, 112.804 130.648, 109.883 117.500 C 108.172 109.800, 105.278 96.975, 103.452 89 C 101.626 81.025, 99.825 72.515, 99.451 70.090 L 98.770 65.679 96.430 63.340 L 94.091 61 88.295 61 L 82.500 61.001 82.500 52.502 L 82.500 44.003 89.500 44.007 C 93.350 44.009, 98.104 44.457, 100.065 45.002 L 103.631 45.992 107.673 49.453 L 111.716 52.913 113.755 57.706 C 114.876 60.343, 116.546 66.100, 117.465 70.500 C 118.384 74.900, 120.490 84.575, 122.145 92 C 125.454 106.848, 130.404 129.164, 135.010 150 C 137.838 162.795, 141.662 179.892, 147.982 208 C 149.528 214.875, 152.302 227.025, 154.145 235 L 157.498 249.500 160.712 253.081 L 163.927 256.662 167.829 257.831 L 171.732 259 308.943 259 L 446.154 259 449.077 261.923 L 452 264.846 452 268.249 L 452 271.651 449.420 274.076 L 446.839 276.500 313.170 276.773 L 179.500 277.045 170.762 276.075 L 162.024 275.104 154.968 270.912 L 147.911 266.719 145.483 267.826 L 143.055 268.932 142.370 271.662 L 141.685 274.393 145.709 277.964 L 149.734 281.536 156.412 284.278 L 163.091 287.021 169.795 287.991 C 173.483 288.524, 182.243 288.969, 189.263 288.980 L 202.025 289 199.470 293.048 L 196.914 297.096 195.852 302.798 L 194.790 308.500 195.416 314.686 C 196.103 321.469, 197.190 324.468, 201.148 330.500 C 204.866 336.165, 208.549 339.316, 215.941 343.155 L 222.382 346.500 231.441 346.500 L 240.500 346.500 247.394 342.620 C 255.482 338.069, 259.299 334.110, 263.744 325.664 L 266.987 319.500 266.981 310.500 L 266.975 301.500 263.987 295.609 C 262.344 292.369, 261 289.557, 261 289.359 C 261 289.162, 281.025 289, 305.500 289 C 329.975 289, 350 289.212, 350 289.470 C 350 289.729, 348.650 292.597, 347 295.844 L 344 301.747 344 310.436 L 344 319.124 346.545 324.504 C 347.945 327.463, 351.061 332.076, 353.468 334.754 L 357.846 339.623 364.621 343.061 L 371.396 346.500 380 346.500 L 388.604 346.500 395.379 343.061 L 402.154 339.623 406.497 334.792 C 408.886 332.135, 411.800 327.980, 412.972 325.558 L 415.103 321.155 415.679 314.286 L 416.255 307.417 415.137 302.204 C 414.522 299.336, 412.910 295.234, 411.555 293.087 L 409.090 289.183 428.295 288.822 L 447.500 288.461 451.500 286.328 C 456.106 283.872, 459.084 280.849, 461.383 276.300 L 463 273.099 463 268.010 L 463 262.920 461.097 259.210 C 458.602 254.345, 454.863 250.943, 450.242 249.333 L 446.500 248.030 309.396 248.015 L 172.292 248 169.840 245.727 L 167.388 243.455 165.651 234.977 C 164.696 230.315, 162.631 220.875, 161.061 214 C 159.491 207.125, 156.764 194.975, 155.001 187 C 153.237 179.025, 150.312 165.975, 148.500 158 C 146.688 150.025, 143.811 137.200, 142.106 129.500 C 135.675 100.452, 131.737 83.034, 128.318 68.500 L 124.789 53.500 122.662 50 C 121.492 48.075, 119.031 44.834, 117.194 42.798 L 113.853 39.095 107.522 36.011 L 101.190 32.926 95.345 31.969 C 92.130 31.442, 86.190 31.009, 82.144 31.006 L 74.788 31 71.144 28.169 C 69.140 26.612, 65.578 24.587, 63.230 23.669 L 58.960 22 52.730 22.048 L 46.500 22.095 42.075 23.645 M 46 33.672 C 45.175 34.012, 42.798 35.625, 40.718 37.255 L 36.935 40.219 35.468 43.732 L 34 47.244 34 52 L 34 56.756 35.453 60.233 C 36.252 62.145, 38.483 65.095, 40.411 66.787 L 43.916 69.865 48.451 70.545 L 52.987 71.225 56.743 70.529 C 58.809 70.146, 61.931 68.953, 63.679 67.878 L 66.859 65.924 69.429 60.766 L 72 55.607 72 52.016 L 72 48.424 69.750 44.020 L 67.500 39.616 63.713 36.603 L 59.926 33.590 53.713 33.321 C 50.296 33.173, 46.825 33.331, 46 33.672 M 159.500 46.850 C 158.400 47.207, 156.116 48.338, 154.424 49.363 L 151.348 51.226 149.696 55.683 L 148.043 60.141 149.600 67.821 C 150.455 72.044, 152.649 82.025, 154.475 90 C 156.300 97.975, 159.189 110.800, 160.894 118.500 C 165.263 138.234, 170.680 162.353, 174.032 177 C 175.606 183.875, 177.179 191.300, 177.529 193.500 C 177.879 195.700, 179.424 202.148, 180.963 207.829 L 183.761 218.158 186.941 221.439 L 190.120 224.720 193.926 225.860 L 197.732 227 305.500 227 L 413.268 227 417.066 225.862 L 420.863 224.724 424.335 221.112 L 427.807 217.500 431.314 203 C 433.244 195.025, 436.203 182.200, 437.890 174.500 C 439.578 166.800, 442.555 153.300, 444.507 144.500 C 446.459 135.700, 449.396 122.425, 451.034 115 C 452.672 107.575, 455.149 96.550, 456.538 90.500 C 457.928 84.450, 459.943 75.225, 461.017 70 L 462.970 60.500 461.473 56 L 459.977 51.500 456.239 49.015 L 452.500 46.530 439.225 46.166 L 425.950 45.803 423.416 47.463 L 420.882 49.123 421.191 52.289 L 421.500 55.454 424 56.712 L 426.500 57.971 438.643 57.985 L 450.786 58 451.323 59.399 C 451.618 60.169, 450.796 65.231, 449.496 70.649 C 448.196 76.067, 445.694 87.025, 443.936 95 C 442.178 102.975, 439.270 116.025, 437.474 124 C 435.679 131.975, 433.449 141.988, 432.519 146.250 C 431.590 150.513, 430.527 154, 430.158 154 C 429.789 154, 424.315 152.830, 417.993 151.400 L 406.500 148.800 394 149.285 L 381.500 149.770 368.500 152.861 C 361.350 154.561, 353.025 156.633, 350 157.465 C 346.975 158.298, 338.720 159.659, 331.655 160.490 L 318.810 162 305.155 161.980 L 291.500 161.960 279.146 160.497 L 266.793 159.034 255.646 156.100 C 249.516 154.486, 239.832 152.177, 234.128 150.968 L 223.755 148.771 211.128 149.284 L 198.500 149.796 190.500 151.886 C 186.100 153.036, 181.968 153.982, 181.318 153.988 L 180.136 154 178.528 146.250 C 176.419 136.083, 171.544 114.169, 168.463 101 C 167.112 95.225, 165.111 86, 164.016 80.500 C 162.922 75, 161.570 68.928, 161.013 67.007 C 160.456 65.085, 160 62.278, 160 60.769 L 160 58.024 279.450 57.762 L 398.900 57.500 399.987 56.413 C 400.584 55.816, 401.284 54.163, 401.542 52.740 L 402.011 50.154 399.371 48.077 L 396.730 46 279.115 46.100 C 214.427 46.155, 160.600 46.492, 159.500 46.850 M 243.169 88.942 L 239.839 89.780 236.793 92.640 C 233.473 95.758, 230.057 102.284, 230.022 105.576 L 230 107.651 232.314 109.826 C 235.081 112.425, 236.280 112.518, 239.535 110.385 L 242 108.770 242 105.956 L 242 103.143 243.506 101.637 C 244.334 100.809, 245.850 99.865, 246.874 99.540 L 248.736 98.949 251.270 99.913 L 253.804 100.876 255.028 104.688 C 257.282 111.705, 260.372 113.529, 264.777 110.443 L 267 108.887 267 105.115 L 267 101.343 263.883 96.636 L 260.765 91.930 257.900 90.448 C 254.246 88.559, 247.453 87.864, 243.169 88.942 M 356.594 88.986 C 353.203 90.065, 347.444 95.326, 345.415 99.200 C 344.637 100.686, 344 103.473, 344 105.394 L 344 108.887 346.223 110.443 C 347.445 111.299, 349.212 112, 350.150 112 L 351.855 112 353.927 109.365 C 355.067 107.916, 356 105.859, 356 104.794 C 356 102.485, 357.791 100.519, 360.747 99.580 L 362.900 98.897 365.936 100.467 L 368.971 102.036 369.545 104.768 C 370.313 108.421, 371.295 110.153, 373.325 111.433 L 375.017 112.500 377.759 110.968 L 380.500 109.437 380.834 106.533 L 381.169 103.630 378.998 98.997 L 376.828 94.363 373.490 91.699 L 370.151 89.035 364.825 88.549 L 359.500 88.062 356.594 88.986 M 288.635 117.073 L 286 119.145 286 120.938 C 286 121.924, 286.911 123.889, 288.025 125.304 L 290.049 127.878 295.463 130.439 L 300.876 133 305.742 133 L 310.607 133 315.800 130.412 C 321.328 127.658, 325 123.876, 325 120.938 L 325 119.145 322.365 117.073 C 319.006 114.431, 318.989 114.433, 314.500 118 L 310.725 121 305.397 121 L 300.070 121 296.653 118 C 292.596 114.438, 292.063 114.376, 288.635 117.073 M 202.500 160.642 C 200.850 160.900, 196.012 162.035, 191.750 163.165 L 184 165.219 184 168.636 C 184 170.515, 185.328 177.553, 186.952 184.276 C 188.575 190.999, 190.629 199.977, 191.515 204.227 L 193.126 211.954 195.698 213.977 L 198.270 216 306.046 216 L 413.822 216 416.210 213.162 L 418.597 210.325 420.378 200.912 C 421.358 195.736, 423.496 186.147, 425.131 179.605 C 426.765 173.063, 427.891 167.160, 427.633 166.487 L 427.164 165.263 418.871 163.026 L 410.578 160.788 400.976 160.259 L 391.373 159.730 384.437 160.908 C 380.621 161.556, 373.450 163.177, 368.500 164.510 C 363.550 165.844, 354.100 168.132, 347.500 169.595 L 335.500 172.255 320.830 172.883 C 312.762 173.229, 299.262 173.236, 290.830 172.899 L 275.500 172.287 263.500 169.545 C 256.900 168.038, 246.325 165.432, 240 163.755 L 228.500 160.706 217 160.439 C 210.675 160.292, 204.150 160.384, 202.500 160.642 M 213.265 293.329 L 209.274 297.658 207.513 302.960 L 205.752 308.262 206.321 313.062 C 207.068 319.372, 209.931 324.802, 214.857 329.252 L 218.858 332.867 222.679 333.928 C 227.623 335.301, 233.984 335.285, 239.540 333.886 L 243.966 332.771 248.483 328.254 L 253.001 323.736 254.500 318.686 C 256.388 312.332, 256.390 308.655, 254.511 302.432 L 253.022 297.500 248.936 293.250 L 244.850 289 231.052 289 L 217.255 289 213.265 293.329 M 362.326 293.250 L 358.236 297.500 356.494 302.881 L 354.752 308.262 355.315 313.011 C 355.624 315.624, 356.840 319.727, 358.017 322.131 L 360.156 326.500 363.614 329.380 C 365.517 330.965, 368.744 332.857, 370.787 333.587 L 374.500 334.912 380 334.912 L 385.500 334.912 389.213 333.587 C 391.256 332.857, 394.483 330.965, 396.386 329.380 L 399.844 326.500 401.983 322.131 C 403.160 319.727, 404.380 315.589, 404.694 312.935 L 405.266 308.109 403.554 302.804 L 401.843 297.500 397.713 293.250 L 393.584 289 380 289 L 366.416 289 362.326 293.250" stroke="none" fill="#010100" fill-rule="evenodd"/><path d="M 42.075 23.645 C 36.074 25.745, 30.016 31.021, 26.005 37.639 L 22.674 43.136 22.620 51.860 L 22.567 60.585 25.274 65.205 C 26.763 67.746, 29.171 71.238, 30.624 72.965 L 33.267 76.106 39.383 79.270 L 45.500 82.434 52.500 82.400 L 59.500 82.367 64.103 80.282 C 66.635 79.135, 70.294 76.803, 72.235 75.099 L 75.764 72 81.783 72 L 87.802 72 90.507 83.750 C 94.704 101.982, 99.484 123.104, 103.011 139 C 104.780 146.975, 107.693 160.025, 109.484 168 C 111.274 175.975, 114.193 189.025, 115.968 197 C 117.744 204.975, 120.717 218.250, 122.574 226.500 C 124.431 234.750, 126.207 243.191, 126.522 245.258 L 127.093 249.015 129.441 250.553 L 131.788 252.091 134.420 251.431 L 137.053 250.770 138.042 248.921 L 139.031 247.073 136.078 234.786 C 134.453 228.029, 131.518 215.075, 129.555 206 C 127.592 196.925, 124.675 183.650, 123.072 176.500 C 116.197 145.824, 112.804 130.648, 109.883 117.500 C 108.172 109.800, 105.278 96.975, 103.452 89 C 101.626 81.025, 99.825 72.515, 99.451 70.090 L 98.770 65.679 96.430 63.340 L 94.091 61 88.295 61 L 82.500 61.001 82.500 52.502 L 82.500 44.003 89.500 44.007 C 93.350 44.009, 98.104 44.457, 100.065 45.002 L 103.631 45.992 107.673 49.453 L 111.716 52.913 113.755 57.706 C 114.876 60.343, 116.546 66.100, 117.465 70.500 C 118.384 74.900, 120.490 84.575, 122.145 92 C 125.454 106.848, 130.404 129.164, 135.010 150 C 137.838 162.795, 141.662 179.892, 147.982 208 C 149.528 214.875, 152.302 227.025, 154.145 235 L 157.498 249.500 160.712 253.081 L 163.927 256.662 167.829 257.831 L 171.732 259 308.943 259 L 446.154 259 449.077 261.923 L 452 264.846 452 268.249 L 452 271.651 449.420 274.076 L 446.839 276.500 313.170 276.773 L 179.500 277.045 170.762 276.075 L 162.024 275.104 154.968 270.912 L 147.911 266.719 145.483 267.826 L 143.055 268.932 142.370 271.662 L 141.685 274.393 145.709 277.964 L 149.734 281.536 156.412 284.278 L 163.091 287.021 169.795 287.991 C 173.483 288.524, 182.243 288.969, 189.263 288.980 L 202.025 289 199.470 293.048 L 196.914 297.096 195.852 302.798 L 194.790 308.500 195.416 314.686 C 196.103 321.469, 197.190 324.468, 201.148 330.500 C 204.866 336.165, 208.549 339.316, 215.941 343.155 L 222.382 346.500 231.441 346.500 L 240.500 346.500 247.394 342.620 C 255.482 338.069, 259.299 334.110, 263.744 325.664 L 266.987 319.500 266.981 310.500 L 266.975 301.500 263.987 295.609 C 262.344 292.369, 261 289.557, 261 289.359 C 261 289.162, 281.025 289, 305.500 289 C 329.975 289, 350 289.212, 350 289.470 C 350 289.729, 348.650 292.597, 347 295.844 L 344 301.747 344 310.436 L 344 319.124 346.545 324.504 C 347.945 327.463, 351.061 332.076, 353.468 334.754 L 357.846 339.623 364.621 343.061 L 371.396 346.500 380 346.500 L 388.604 346.500 395.379 343.061 L 402.154 339.623 406.497 334.792 C 408.886 332.135, 411.800 327.980, 412.972 325.558 L 415.103 321.155 415.679 314.286 L 416.255 307.417 415.137 302.204 C 414.522 299.336, 412.910 295.234, 411.555 293.087 L 409.090 289.183 428.295 288.822 L 447.500 288.461 451.500 286.328 C 456.106 283.872, 459.084 280.849, 461.383 276.300 L 463 273.099 463 268.010 L 463 262.920 461.097 259.210 C 458.602 254.345, 454.863 250.943, 450.242 249.333 L 446.500 248.030 309.396 248.015 L 172.292 248 169.840 245.727 L 167.388 243.455 165.651 234.977 C 164.696 230.315, 162.631 220.875, 161.061 214 C 159.491 207.125, 156.764 194.975, 155.001 187 C 153.237 179.025, 150.312 165.975, 148.500 158 C 146.688 150.025, 143.811 137.200, 142.106 129.500 C 135.675 100.452, 131.737 83.034, 128.318 68.500 L 124.789 53.500 122.662 50 C 121.492 48.075, 119.031 44.834, 117.194 42.798 L 113.853 39.095 107.522 36.011 L 101.190 32.926 95.345 31.969 C 92.130 31.442, 86.190 31.009, 82.144 31.006 L 74.788 31 71.144 28.169 C 69.140 26.612, 65.578 24.587, 63.230 23.669 L 58.960 22 52.730 22.048 L 46.500 22.095 42.075 23.645 M 46 33.672 C 45.175 34.012, 42.798 35.625, 40.718 37.255 L 36.935 40.219 35.468 43.732 L 34 47.244 34 52 L 34 56.756 35.453 60.233 C 36.252 62.145, 38.483 65.095, 40.411 66.787 L 43.916 69.865 48.451 70.545 L 52.987 71.225 56.743 70.529 C 58.809 70.146, 61.931 68.953, 63.679 67.878 L 66.859 65.924 69.429 60.766 L 72 55.607 72 52.016 L 72 48.424 69.750 44.020 L 67.500 39.616 63.713 36.603 L 59.926 33.590 53.713 33.321 C 50.296 33.173, 46.825 33.331, 46 33.672 M 159.500 46.850 C 158.400 47.207, 156.116 48.338, 154.424 49.363 L 151.348 51.226 149.696 55.683 L 148.043 60.141 149.600 67.821 C 150.455 72.044, 152.649 82.025, 154.475 90 C 156.300 97.975, 159.189 110.800, 160.894 118.500 C 165.263 138.234, 170.680 162.353, 174.032 177 C 175.606 183.875, 177.179 191.300, 177.529 193.500 C 177.879 195.700, 179.424 202.148, 180.963 207.829 L 183.761 218.158 186.941 221.439 L 190.120 224.720 193.926 225.860 L 197.732 227 305.500 227 L 413.268 227 417.066 225.862 L 420.863 224.724 424.335 221.112 L 427.807 217.500 431.314 203 C 433.244 195.025, 436.203 182.200, 437.890 174.500 C 439.578 166.800, 442.555 153.300, 444.507 144.500 C 446.459 135.700, 449.396 122.425, 451.034 115 C 452.672 107.575, 455.149 96.550, 456.538 90.500 C 457.928 84.450, 459.943 75.225, 461.017 70 L 462.970 60.500 461.473 56 L 459.977 51.500 456.239 49.015 L 452.500 46.530 439.225 46.166 L 425.950 45.803 423.416 47.463 L 420.882 49.123 421.191 52.289 L 421.500 55.454 424 56.712 L 426.500 57.971 438.643 57.985 L 450.786 58 451.323 59.399 C 451.618 60.169, 450.796 65.231, 449.496 70.649 C 448.196 76.067, 445.694 87.025, 443.936 95 C 442.178 102.975, 439.270 116.025, 437.474 124 C 435.679 131.975, 433.449 141.988, 432.519 146.250 C 431.590 150.513, 430.527 154, 430.158 154 C 429.789 154, 424.315 152.830, 417.993 151.400 L 406.500 148.800 394 149.285 L 381.500 149.770 368.500 152.861 C 361.350 154.561, 353.025 156.633, 350 157.465 C 346.975 158.298, 338.720 159.659, 331.655 160.490 L 318.810 162 305.155 161.980 L 291.500 161.960 279.146 160.497 L 266.793 159.034 255.646 156.100 C 249.516 154.486, 239.832 152.177, 234.128 150.968 L 223.755 148.771 211.128 149.284 L 198.500 149.796 190.500 151.886 C 186.100 153.036, 181.968 153.982, 181.318 153.988 L 180.136 154 178.528 146.250 C 176.419 136.083, 171.544 114.169, 168.463 101 C 167.112 95.225, 165.111 86, 164.016 80.500 C 162.922 75, 161.570 68.928, 161.013 67.007 C 160.456 65.085, 160 62.278, 160 60.769 L 160 58.024 279.450 57.762 L 398.900 57.500 399.987 56.413 C 400.584 55.816, 401.284 54.163, 401.542 52.740 L 402.011 50.154 399.371 48.077 L 396.730 46 279.115 46.100 C 214.427 46.155, 160.600 46.492, 159.500 46.850 M 243.169 88.942 L 239.839 89.780 236.793 92.640 C 233.473 95.758, 230.057 102.284, 230.022 105.576 L 230 107.651 232.314 109.826 C 235.081 112.425, 236.280 112.518, 239.535 110.385 L 242 108.770 242 105.956 L 242 103.143 243.506 101.637 C 244.334 100.809, 245.850 99.865, 246.874 99.540 L 248.736 98.949 251.270 99.913 L 253.804 100.876 255.028 104.688 C 257.282 111.705, 260.372 113.529, 264.777 110.443 L 267 108.887 267 105.115 L 267 101.343 263.883 96.636 L 260.765 91.930 257.900 90.448 C 254.246 88.559, 247.453 87.864, 243.169 88.942 M 356.594 88.986 C 353.203 90.065, 347.444 95.326, 345.415 99.200 C 344.637 100.686, 344 103.473, 344 105.394 L 344 108.887 346.223 110.443 C 347.445 111.299, 349.212 112, 350.150 112 L 351.855 112 353.927 109.365 C 355.067 107.916, 356 105.859, 356 104.794 C 356 102.485, 357.791 100.519, 360.747 99.580 L 362.900 98.897 365.936 100.467 L 368.971 102.036 369.545 104.768 C 370.313 108.421, 371.295 110.153, 373.325 111.433 L 375.017 112.500 377.759 110.968 L 380.500 109.437 380.834 106.533 L 381.169 103.630 378.998 98.997 L 376.828 94.363 373.490 91.699 L 370.151 89.035 364.825 88.549 L 359.500 88.062 356.594 88.986 M 288.635 117.073 L 286 119.145 286 120.938 C 286 121.924, 286.911 123.889, 288.025 125.304 L 290.049 127.878 295.463 130.439 L 300.876 133 305.742 133 L 310.607 133 315.800 130.412 C 321.328 127.658, 325 123.876, 325 120.938 L 325 119.145 322.365 117.073 C 319.006 114.431, 318.989 114.433, 314.500 118 L 310.725 121 305.397 121 L 300.070 121 296.653 118 C 292.596 114.438, 292.063 114.376, 288.635 117.073 M 202.500 160.642 C 200.850 160.900, 196.012 162.035, 191.750 163.165 L 184 165.219 184 168.636 C 184 170.515, 185.328 177.553, 186.952 184.276 C 188.575 190.999, 190.629 199.977, 191.515 204.227 L 193.126 211.954 195.698 213.977 L 198.270 216 306.046 216 L 413.822 216 416.210 213.162 L 418.597 210.325 420.378 200.912 C 421.358 195.736, 423.496 186.147, 425.131 179.605 C 426.765 173.063, 427.891 167.160, 427.633 166.487 L 427.164 165.263 418.871 163.026 L 410.578 160.788 400.976 160.259 L 391.373 159.730 384.437 160.908 C 380.621 161.556, 373.450 163.177, 368.500 164.510 C 363.550 165.844, 354.100 168.132, 347.500 169.595 L 335.500 172.255 320.830 172.883 C 312.762 173.229, 299.262 173.236, 290.830 172.899 L 275.500 172.287 263.500 169.545 C 256.900 168.038, 246.325 165.432, 240 163.755 L 228.500 160.706 217 160.439 C 210.675 160.292, 204.150 160.384, 202.500 160.642 M 213.265 293.329 L 209.274 297.658 207.513 302.960 L 205.752 308.262 206.321 313.062 C 207.068 319.372, 209.931 324.802, 214.857 329.252 L 218.858 332.867 222.679 333.928 C 227.623 335.301, 233.984 335.285, 239.540 333.886 L 243.966 332.771 248.483 328.254 L 253.001 323.736 254.500 318.686 C 256.388 312.332, 256.390 308.655, 254.511 302.432 L 253.022 297.500 248.936 293.250 L 244.850 289 231.052 289 L 217.255 289 213.265 293.329 M 362.326 293.250 L 358.236 297.500 356.494 302.881 L 354.752 308.262 355.315 313.011 C 355.624 315.624, 356.840 319.727, 358.017 322.131 L 360.156 326.500 363.614 329.380 C 365.517 330.965, 368.744 332.857, 370.787 333.587 L 374.500 334.912 380 334.912 L 385.500 334.912 389.213 333.587 C 391.256 332.857, 394.483 330.965, 396.386 329.380 L 399.844 326.500 401.983 322.131 C 403.160 319.727, 404.380 315.589, 404.694 312.935 L 405.266 308.109 403.554 302.804 L 401.843 297.500 397.713 293.250 L 393.584 289 380 289 L 366.416 289 362.326 293.250" stroke="none" fill="#010100" fill-rule="evenodd"/><path d="M 221.044 110.577 C 215.953 112.786, 211.483 116.483, 208.952 120.578 L 206.714 124.198 206.714 129.584 L 206.714 134.970 209.366 138.976 C 210.824 141.180, 213.701 144.051, 215.759 145.357 L 219.500 147.731 230.566 148.975 L 241.633 150.220 246.656 147.674 L 251.680 145.128 254.785 141.592 L 257.891 138.055 258.940 134.277 C 260.234 129.619, 260.234 129.381, 258.940 124.723 L 257.891 120.945 254.790 117.414 C 251.847 114.062, 245.370 110, 242.968 110 C 242.357 110, 241.182 110.675, 240.357 111.500 L 238.857 113 235.929 113 L 233 113 231 111 L 229 109 226.750 109.039 C 225.512 109.061, 222.945 109.753, 221.044 110.577 M 380.232 111 L 378.983 113 375.614 113 L 372.245 113 371 111.500 C 369.357 109.520, 367.683 109.608, 363.210 111.908 C 358.077 114.549, 354.359 118.732, 352.525 123.930 L 350.972 128.332 351.619 131.916 C 352.972 139.397, 357.323 144.488, 365.428 148.072 L 370.357 150.251 380.928 148.980 C 386.743 148.281, 392.625 147.140, 394 146.444 C 399.626 143.596, 405 135.318, 405 129.500 C 405 125.862, 402.354 119.991, 399.197 116.624 C 396.039 113.255, 387.588 109.024, 383.991 109.010 L 381.481 109 380.232 111 M 151.892 123.614 L 147.285 126.180 145.660 129.586 L 144.036 132.993 146.898 145.247 C 149.603 156.825, 150.914 162.649, 159.565 201.500 C 167.070 235.204, 169.074 243.385, 170.142 244.671 L 171.245 246 231.229 246 L 291.214 246 290.611 244.428 C 290.279 243.563, 290.507 240.873, 291.117 238.448 L 292.227 234.041 291.604 231.557 L 290.980 229.073 243.240 228.787 L 195.500 228.500 191.237 226.223 L 186.973 223.946 184.042 219.899 L 181.110 215.852 179.937 210.176 C 179.291 207.054, 177.300 197.975, 175.511 190 C 173.722 182.025, 170.801 168.975, 169.020 161 C 162.840 133.334, 160.836 124.491, 160.352 122.750 L 159.865 121 158.183 121.024 C 157.257 121.038, 154.427 122.203, 151.892 123.614 M 319 232.051 L 319 235.102 322.250 236.420 C 324.038 237.145, 329.166 238.029, 333.646 238.384 L 341.792 239.029 344.335 238.063 C 345.734 237.531, 347.381 236.157, 347.995 235.010 L 349.111 232.924 348.488 230.962 L 347.865 229 333.433 229 L 319 229 319 232.051" stroke="none" fill="#ffffff" fill-rule="evenodd"/><path d="M 221.044 110.577 C 215.953 112.786, 211.483 116.483, 208.952 120.578 L 206.714 124.198 206.714 129.584 L 206.714 134.970 209.366 138.976 C 210.824 141.180, 213.701 144.051, 215.759 145.357 L 219.500 147.731 230.566 148.975 L 241.633 150.220 246.656 147.674 L 251.680 145.128 254.785 141.592 L 257.891 138.055 258.940 134.277 C 260.234 129.619, 260.234 129.381, 258.940 124.723 L 257.891 120.945 254.790 117.414 C 251.847 114.062, 245.370 110, 242.968 110 C 242.357 110, 241.182 110.675, 240.357 111.500 L 238.857 113 235.929 113 L 233 113 231 111 L 229 109 226.750 109.039 C 225.512 109.061, 222.945 109.753, 221.044 110.577 M 380.232 111 L 378.983 113 375.614 113 L 372.245 113 371 111.500 C 369.357 109.520, 367.683 109.608, 363.210 111.908 C 358.077 114.549, 354.359 118.732, 352.525 123.930 L 350.972 128.332 351.619 131.916 C 352.972 139.397, 357.323 144.488, 365.428 148.072 L 370.357 150.251 380.928 148.980 C 386.743 148.281, 392.625 147.140, 394 146.444 C 399.626 143.596, 405 135.318, 405 129.500 C 405 125.862, 402.354 119.991, 399.197 116.624 C 396.039 113.255, 387.588 109.024, 383.991 109.010 L 381.481 109 380.232 111 M 151.892 123.614 L 147.285 126.180 145.660 129.586 L 144.036 132.993 146.898 145.247 C 149.603 156.825, 150.914 162.649, 159.565 201.500 C 167.070 235.204, 169.074 243.385, 170.142 244.671 L 171.245 246 231.229 246 L 291.214 246 290.611 244.428 C 290.279 243.563, 290.507 240.873, 291.117 238.448 L 292.227 234.041 291.604 231.557 L 290.980 229.073 243.240 228.787 L 195.500 228.500 191.237 226.223 L 186.973 223.946 184.042 219.899 L 181.110 215.852 179.937 210.176 C 179.291 207.054, 177.300 197.975, 175.511 190 C 173.722 182.025, 170.801 168.975, 169.020 161 C 162.840 133.334, 160.836 124.491, 160.352 122.750 L 159.865 121 158.183 121.024 C 157.257 121.038, 154.427 122.203, 151.892 123.614 M 319 232.051 L 319 235.102 322.250 236.420 C 324.038 237.145, 329.166 238.029, 333.646 238.384 L 341.792 239.029 344.335 238.063 C 345.734 237.531, 347.381 236.157, 347.995 235.010 L 349.111 232.924 348.488 230.962 L 347.865 229 333.433 229 L 319 229 319 232.051" stroke="none" fill="#ffffff" fill-rule="evenodd"/><path d="M 219.237 91 C 219.237 92.375, 219.580 94.850, 220 96.500 L 220.763 99.500 220.763 97 C 220.763 95.625, 220.420 93.150, 220 91.500 L 219.237 88.500 219.237 91 M 396.250 147.728 C 398.313 147.944, 401.688 147.944, 403.750 147.728 L 407.500 147.336 400 147.336 L 392.500 147.336 396.250 147.728 M 298.296 160.744 C 302.583 160.932, 309.333 160.931, 313.296 160.742 C 317.258 160.552, 313.750 160.399, 305.500 160.400 C 297.250 160.401, 294.008 160.556, 298.296 160.744" stroke="none" fill="#80b8e0" fill-rule="evenodd"/><path d="M 50.750 33.706 C 51.987 33.944, 54.013 33.944, 55.250 33.706 L 57.500 33.272 53 33.272 L 48.500 33.272 50.750 33.706 M 105 48.313 C 105 48.485, 106.463 49.948, 108.250 51.563 L 111.500 54.500 108.563 51.250 C 105.825 48.221, 105 47.540, 105 48.313 M 160.654 58.750 L 160.191 59.500 235.845 59.249 C 277.455 59.111, 330.625 58.881, 354 58.738 C 377.375 58.595, 343.539 58.370, 278.809 58.239 L 161.118 58 160.654 58.750 M 430.500 58.655 C 432.700 58.824, 438.171 59.082, 442.658 59.231 L 450.816 59.500 450.349 58.750 L 449.882 58 438.191 58.175 C 431.761 58.271, 428.300 58.487, 430.500 58.655 M 28 71.313 C 28 71.485, 29.462 72.948, 31.250 74.563 L 34.500 77.500 31.563 74.250 C 28.825 71.221, 28 70.540, 28 71.313 M 78.768 72.725 C 80.565 72.947, 83.265 72.943, 84.768 72.715 C 86.271 72.486, 84.800 72.304, 81.500 72.310 L 75.500 72.320 78.768 72.725 M 247.250 87.689 C 248.213 87.941, 249.787 87.941, 250.750 87.689 L 252.500 87.232 249 87.232 L 245.500 87.232 247.250 87.689 M 360.762 87.707 C 362.006 87.946, 363.806 87.937, 364.762 87.687 C 365.718 87.437, 364.700 87.241, 362.500 87.252 L 358.500 87.272 360.762 87.707 M 303.762 174.707 C 305.006 174.946, 306.806 174.937, 307.762 174.687 C 308.718 174.437, 307.700 174.241, 305.500 174.252 L 301.500 174.272 303.762 174.707 M 147.199 209.500 C 147.199 210.600, 147.560 212.625, 148 214 L 148.801 216.500 148.801 214.500 C 148.801 213.400, 148.440 211.375, 148 210 L 147.199 207.500 147.199 209.500 M 251.673 215.750 C 280.919 215.897, 329.069 215.897, 358.673 215.750 C 388.278 215.603, 364.350 215.482, 305.500 215.482 C 246.650 215.482, 222.428 215.603, 251.673 215.750 M 184 219.313 C 184 219.485, 185.463 220.948, 187.250 222.563 L 190.500 225.500 187.563 222.250 C 184.825 219.221, 184 218.540, 184 219.313 M 251.173 227.750 C 280.694 227.897, 329.294 227.897, 359.173 227.750 C 389.053 227.603, 364.900 227.482, 305.500 227.482 C 246.100 227.482, 221.653 227.603, 251.173 227.750 M 240.828 247.750 C 278.408 247.895, 339.608 247.895, 376.828 247.750 C 414.048 247.605, 383.300 247.486, 308.500 247.486 C 233.700 247.486, 203.248 247.605, 240.828 247.750 M 223.500 260.740 C 250.450 260.882, 311.945 261.111, 360.155 261.249 L 447.809 261.500 447.346 260.750 L 446.882 260 310.691 260.240 C 235.786 260.373, 196.550 260.597, 223.500 260.740 M 145 266.391 C 145 266.605, 146.543 266.961, 148.430 267.182 L 151.860 267.582 151.371 266.791 C 150.887 266.008, 145 265.638, 145 266.391 M 194.252 310.500 L 194.272 314.500 194.707 312.238 C 194.946 310.994, 194.937 309.194, 194.687 308.238 C 194.437 307.282, 194.241 308.300, 194.252 310.500 M 355.232 311 L 355.232 314.500 355.689 312.750 C 355.941 311.788, 355.941 310.212, 355.689 309.250 L 355.232 307.500 355.232 311 M 396.437 328.250 L 393.500 331.500 396.750 328.563 C 398.538 326.948, 400 325.485, 400 325.313 C 400 324.540, 399.175 325.221, 396.437 328.250" stroke="none" fill="#28303f" fill-rule="evenodd"/></svg>