<svg xmlns="http://www.w3.org/2000/svg" width="689" height="362" viewBox="0 0 689 362" version="1.1"><path d="M 232.025 19.975 C 230.939 21.061, 229.771 23.065, 229.428 24.429 C 228.789 26.977, 230.607 46.940, 231.566 47.899 C 231.860 48.193, 231.766 45.298, 231.358 41.467 C 229.568 24.652, 230.873 19, 236.544 19 C 240.445 19, 242.799 22.228, 246.388 32.500 C 248.309 38, 249.908 42.051, 249.941 41.502 C 249.973 40.954, 248.614 36.346, 246.921 31.263 C 243.669 21.502, 240.882 18, 236.365 18 C 235.064 18, 233.111 18.889, 232.025 19.975 M 366.199 40.929 C 361.740 42.063, 360.763 43.217, 365.073 42.260 C 369.469 41.285, 376.662 41.287, 380.500 42.264 C 382.891 42.872, 383.135 42.806, 381.701 41.936 C 379.287 40.473, 370.292 39.889, 366.199 40.929 M 312.250 42.716 C 313.762 42.945, 316.238 42.945, 317.750 42.716 C 319.262 42.487, 318.025 42.300, 315 42.300 C 311.975 42.300, 310.738 42.487, 312.250 42.716 M 302.847 46.464 C 296.593 51.053, 289.955 60.234, 290.022 64.200 C 290.034 64.915, 290.957 63.488, 292.072 61.028 C 295.038 54.491, 298.467 50.412, 304.300 46.484 C 307.145 44.568, 309.029 43.011, 308.487 43.025 C 307.944 43.038, 305.406 44.586, 302.847 46.464 M 357.226 45.131 C 351.112 49.045, 347.070 59.405, 349.908 63.885 C 350.447 64.737, 350.586 63.506, 350.268 60.685 C 349.846 56.938, 350.239 55.269, 352.418 51.550 C 353.884 49.048, 355.403 46.990, 355.792 46.978 C 356.601 46.952, 361.764 43.047, 361 43.039 C 360.725 43.036, 359.026 43.977, 357.226 45.131 M 330.146 45.482 C 335.814 47.334, 340.505 52.377, 342.012 58.237 C 343.569 64.294, 344.097 65.143, 343.419 60.500 C 342.159 51.879, 336.560 45.677, 328.975 44.502 C 326.138 44.062, 326.352 44.242, 330.146 45.482 M 388.873 47.285 C 392.735 51.959, 393.255 58.745, 390 62 C 387.309 64.691, 385.942 64.530, 381.500 61 C 377.526 57.842, 373.412 57.174, 369.809 59.102 C 367.876 60.137, 368.215 60.673, 375.327 67.852 C 379.525 72.089, 383.808 77.507, 384.930 80 C 386.045 82.475, 386.947 83.825, 386.936 83 C 386.897 80.093, 383.424 75.059, 376.339 67.642 C 368.906 59.861, 368.767 59, 374.944 59 C 376.528 59, 379.349 60.291, 381.500 62 C 386.079 65.639, 387.374 65.717, 390.545 62.545 C 392.434 60.657, 393 59.039, 393 55.531 C 393 51.642, 392.466 50.421, 389.373 47.235 L 385.746 43.500 388.873 47.285 M 251.152 47 C 251.152 47.825, 251.759 50.075, 252.500 52 C 253.241 53.925, 253.848 54.825, 253.848 54 C 253.848 53.175, 253.241 50.925, 252.500 49 C 251.759 47.075, 251.152 46.175, 251.152 47 M 233.099 55 C 232.948 57.255, 236.307 73.578, 236.688 72.436 C 236.869 71.892, 236.159 67.409, 235.109 62.473 C 234.059 57.538, 233.155 54.175, 233.099 55 M 254 56.347 C 254 57.971, 259.318 76.015, 259.688 75.646 C 259.913 75.421, 258.912 71.021, 257.464 65.868 C 255.088 57.416, 254 54.425, 254 56.347 M 312.299 59.250 C 311.172 60.487, 309.735 62.625, 309.105 64 C 308.133 66.120, 308.152 66.214, 309.230 64.616 C 309.928 63.580, 311.553 61.442, 312.839 59.866 C 315.612 56.468, 315.230 56.032, 312.299 59.250 M 320.750 59.471 C 324.550 62.597, 324.694 63.719, 321.980 69.040 C 320.868 71.218, 320.184 73, 320.459 73 C 321.220 73, 325 65.269, 325 63.714 C 325 62.310, 321.661 58.878, 319 57.547 C 318.175 57.134, 318.962 58, 320.750 59.471 M 341.528 68.703 C 339.908 77.338, 333.249 86.043, 325.507 89.649 C 322.753 90.931, 321.080 91.985, 321.790 91.990 C 326.534 92.026, 336.050 83.743, 339.873 76.249 C 341.806 72.460, 343.696 65, 342.723 65 C 342.448 65, 341.910 66.667, 341.528 68.703 M 351.801 67.542 C 353.012 69.905, 361.289 77.833, 365.266 80.439 C 366.760 81.418, 367.735 82.620, 367.432 83.109 C 367.130 83.599, 367.359 84, 367.941 84 C 370.212 84, 368.770 82.066, 363.423 77.941 C 360.356 75.574, 356.250 71.807, 354.300 69.569 C 352.350 67.331, 351.226 66.419, 351.801 67.542 M 307.150 69.215 C 306.991 72.085, 309.338 74.076, 312.684 73.910 C 313.683 73.860, 313.067 73.405, 311.315 72.898 C 308.918 72.204, 308.028 71.300, 307.715 69.238 L 307.300 66.500 307.150 69.215 M 237.103 74.803 C 236.951 76.722, 240.121 90.212, 240.609 89.724 C 240.838 89.495, 240.166 85.751, 239.116 81.404 C 238.065 77.057, 237.159 74.086, 237.103 74.803 M 260.063 77.703 C 259.964 79.592, 262.218 84, 263.283 84 C 263.837 84, 263.787 83.448, 263.163 82.696 C 262.568 81.979, 261.641 80.292, 261.104 78.946 C 260.566 77.601, 260.098 77.041, 260.063 77.703 M 346.923 80.923 C 344.780 83.066, 344.031 84.734, 344.115 87.173 L 344.230 90.500 344.969 86.682 C 345.902 81.860, 347.860 79.902, 352.682 78.969 L 356.500 78.230 353.173 78.115 C 350.734 78.031, 349.066 78.780, 346.923 80.923 M 289.800 80.200 C 290.460 80.860, 291 83.120, 291 85.222 C 291 88.325, 290.200 89.919, 286.750 93.684 C 284.413 96.236, 280.499 99.601, 278.054 101.162 C 275.609 102.723, 274.079 104, 274.654 104 C 278.577 104, 292 90.355, 292 86.367 C 292 83.912, 292.145 83.814, 293.750 85.193 C 297.547 88.454, 298.284 88.184, 294.750 84.826 C 292.688 82.867, 291 80.754, 291 80.132 C 291 79.509, 290.460 79, 289.800 79 C 288.867 79, 288.867 79.267, 289.800 80.200 M 360.896 81.092 C 363.313 82.164, 365.470 82.864, 365.687 82.646 C 366.120 82.214, 358.414 78.956, 357.230 79.071 C 356.828 79.109, 358.478 80.019, 360.896 81.092 M 301.500 89.536 C 303.150 90.292, 305.400 90.900, 306.500 90.888 C 307.600 90.876, 306.475 90.228, 304 89.448 C 298.448 87.699, 297.556 87.730, 301.500 89.536 M 385.629 92.342 C 385.293 93.681, 383.423 96.177, 381.474 97.889 C 379.525 99.600, 378.361 101, 378.888 101 C 381.470 101, 388.198 91.865, 386.711 90.378 C 386.452 90.119, 385.965 91.003, 385.629 92.342 M 241 91.383 C 241 92.456, 243.975 98, 244.551 98 C 244.826 98, 244.308 96.537, 243.399 94.750 C 241.542 91.100, 241 90.339, 241 91.383 M 346.097 93 C 347.967 95.978, 356.543 102.009, 358.863 101.978 C 359.763 101.966, 358.521 101.058, 356.101 99.960 C 353.682 98.863, 350.088 96.285, 348.115 94.232 C 345.831 91.856, 345.098 91.409, 346.097 93 M 247.962 101.928 C 249.866 103.618, 251.854 105, 252.379 105 C 252.904 105, 253.146 104.869, 252.917 104.710 C 252.688 104.550, 250.700 103.167, 248.500 101.637 L 244.500 98.856 247.962 101.928 M 363.728 102.722 C 365.503 102.943, 368.653 102.946, 370.728 102.730 C 372.802 102.513, 371.350 102.333, 367.500 102.328 C 363.650 102.324, 361.952 102.501, 363.728 102.722 M 259.264 106.718 C 260.784 106.947, 263.034 106.941, 264.264 106.704 C 265.494 106.467, 264.250 106.279, 261.500 106.286 C 258.750 106.294, 257.744 106.488, 259.264 106.718 M 478.006 137.496 C 474.737 139.907, 473.047 141.816, 473.015 143.132 C 473.007 143.480, 474.747 142.018, 476.882 139.882 C 481.741 135.024, 485.408 134.729, 489.383 138.877 C 493.341 143.009, 493.779 147.986, 493.932 190.530 C 494.040 220.530, 493.771 228.959, 492.515 234.929 C 490.772 243.215, 491.061 245.276, 493.056 238.786 C 494.620 233.696, 495.410 157.259, 493.998 147.618 C 493.321 142.994, 492.439 141.016, 489.872 138.368 C 485.916 134.287, 482.678 134.049, 478.006 137.496 M 86.500 140.906 C 83.568 141.438, 84.902 141.616, 91.500 141.572 C 96.450 141.540, 102.300 141.840, 104.500 142.240 C 107.232 142.737, 107.820 142.678, 106.354 142.055 C 103.287 140.750, 91.213 140.051, 86.500 140.906 M 112.100 144.991 C 114.079 146.037, 117.117 148.508, 118.850 150.482 C 122.111 154.196, 122.777 154.320, 120.929 150.867 C 119.806 148.769, 111.371 142.968, 109.554 143.044 C 108.974 143.069, 110.120 143.945, 112.100 144.991 M 471.641 148.683 C 470.257 158.168, 468.781 173.843, 469.164 174.993 C 469.397 175.690, 470.334 169.356, 471.248 160.918 C 472.162 152.480, 472.749 145.416, 472.554 145.221 C 472.358 145.025, 471.948 146.583, 471.641 148.683 M 58.035 151.750 C 48.938 157.063, 37.297 168.867, 31.667 178.486 C 29.100 182.871, 27 186.918, 27 187.479 C 27 188.041, 29.138 184.687, 31.750 180.026 C 37.507 169.755, 48.676 158.239, 58.332 152.618 C 64.099 149.261, 65.845 148, 64.727 148 C 64.577 148, 61.566 149.688, 58.035 151.750 M 121.813 158.227 C 121.594 160.484, 120.748 161.833, 119 162.712 C 117.291 163.572, 117.031 163.975, 118.179 163.985 C 120.750 164.008, 123 161.182, 123 157.929 C 123 153.998, 122.205 154.198, 121.813 158.227 M 99.776 161.733 C 102.128 161.945, 105.728 161.942, 107.776 161.727 C 109.824 161.512, 107.900 161.339, 103.500 161.343 C 99.100 161.346, 97.424 161.522, 99.776 161.733 M 87.500 163.464 C 83.556 165.270, 84.448 165.301, 90 163.552 C 92.475 162.772, 93.600 162.124, 92.500 162.112 C 91.400 162.100, 89.150 162.708, 87.500 163.464 M 406.500 164.939 C 405.366 165.391, 407.747 165.543, 412 165.289 C 421.769 164.704, 423.202 164.160, 415 164.149 C 411.425 164.144, 407.600 164.500, 406.500 164.939 M 74.769 169.949 C 67.130 175.058, 59.146 182.794, 57.107 187.062 L 55.942 189.500 57.650 187 C 61.044 182.030, 71.788 172.419, 78.053 168.750 C 81.574 166.688, 83.940 165, 83.311 165 C 82.682 165, 78.838 167.227, 74.769 169.949 M 397.946 168.825 C 392.813 172.086, 388.187 177.093, 384.653 183.210 C 381.916 187.949, 377.969 200, 378.055 203.355 C 378.085 204.535, 378.991 202.125, 380.067 198 C 383.798 183.703, 390.040 174.313, 399.369 168.962 C 402.191 167.343, 404.026 166.015, 403.446 166.009 C 402.866 166.004, 400.391 167.271, 397.946 168.825 M 430.356 168.080 C 439.659 171.854, 445.950 177.162, 450.414 185 C 451.823 187.475, 452.981 189.026, 452.988 188.446 C 453.012 186.302, 447.178 178.309, 442.944 174.684 C 438.553 170.925, 429.257 165.953, 426.812 166.055 C 426.090 166.085, 427.685 166.996, 430.356 168.080 M 179.083 168.366 C 179.313 168.567, 183.325 168.954, 188 169.226 C 192.675 169.498, 195.375 169.378, 194 168.960 C 191.503 168.200, 178.295 167.674, 179.083 168.366 M 170.500 171.358 C 161.689 175.480, 152.138 188.672, 150.489 199 C 150.109 201.378, 150.529 200.719, 151.797 196.945 C 156.312 183.504, 162.869 175.474, 172.590 171.477 C 175.840 170.141, 177.825 169.041, 177 169.034 C 176.175 169.026, 173.250 170.072, 170.500 171.358 M 205.282 174.081 C 211.718 177.402, 217.998 183.182, 220.621 188.197 C 221.572 190.014, 222.657 194.425, 223.033 198 L 223.716 204.500 223.858 198.946 C 224.116 188.850, 217.386 179.342, 205.783 173.411 C 203.189 172.085, 200.714 171.022, 200.283 171.048 C 199.852 171.075, 202.102 172.439, 205.282 174.081 M 250.643 173.768 C 250.382 174.191, 251.849 174.377, 253.903 174.181 C 257.146 173.871, 258.052 174.295, 260.770 177.391 C 262.492 179.352, 264.199 182.542, 264.562 184.479 C 264.925 186.415, 265.490 188, 265.818 188 C 266.145 188, 269.093 186.120, 272.368 183.823 C 275.644 181.525, 280.838 178.611, 283.912 177.346 C 286.985 176.082, 288.825 175.041, 288 175.034 C 285.677 175.012, 277.035 179.387, 271.512 183.381 L 266.524 186.988 265.234 183.263 C 263.313 177.713, 258.321 173, 254.363 173 C 252.578 173, 250.904 173.346, 250.643 173.768 M 323.481 175.991 C 319.367 178.028, 312 184.523, 312 186.114 C 312 187.753, 309.580 187.018, 307.510 184.750 C 306.380 183.512, 304.116 181.385, 302.478 180.021 C 300.840 178.658, 301.957 180.118, 304.959 183.265 L 310.419 188.987 314.709 184.083 C 317.068 181.386, 320.941 178.239, 323.315 177.090 C 328.458 174.600, 337.393 174.302, 342.532 176.449 C 344.439 177.246, 346 177.673, 346 177.398 C 346 177.123, 344.439 176.246, 342.532 175.449 C 337.476 173.337, 328.317 173.597, 323.481 175.991 M 245.662 177.831 C 242.926 180.686, 240.878 188.645, 241.115 195.500 C 241.172 197.150, 241.796 194.526, 242.501 189.668 C 243.565 182.340, 244.259 180.339, 246.579 177.918 C 248.116 176.313, 249.149 175, 248.874 175 C 248.599 175, 247.154 176.274, 245.662 177.831 M 630.776 177.733 C 633.128 177.945, 636.728 177.942, 638.776 177.727 C 640.824 177.512, 638.900 177.339, 634.500 177.343 C 630.100 177.346, 628.424 177.522, 630.776 177.733 M 350.204 181.501 C 352.241 183.701, 355.270 187.975, 356.936 191 C 358.601 194.025, 359.968 196.050, 359.973 195.500 C 359.991 193.351, 353.996 184.321, 350.346 181.001 L 346.500 177.503 350.204 181.501 M 467.108 193.500 C 466.370 201.750, 465.983 209.625, 466.247 211 C 466.513 212.384, 466.788 211.174, 466.864 208.289 C 466.939 205.423, 467.487 198.603, 468.082 193.133 C 468.677 187.664, 469.003 182.134, 468.806 180.844 C 468.610 179.555, 467.845 185.250, 467.108 193.500 M 617.250 180.491 C 615.462 181.268, 614 182.127, 614 182.401 C 614 182.881, 621.071 180.196, 621.917 179.395 C 622.791 178.567, 620.369 179.135, 617.250 180.491 M 652 181.694 C 656.376 184.811, 659.968 189.110, 660.908 192.354 C 661.557 194.595, 661.846 194.896, 661.910 193.400 C 662.036 190.457, 656.938 183.846, 652.892 181.706 C 649.683 180.010, 649.635 180.009, 652 181.694 M 606.997 187.600 C 592.797 200.882, 593.702 217.337, 609.235 228.299 C 612.681 230.731, 616.850 233.540, 618.500 234.543 C 623.741 237.729, 619.787 234.506, 611.666 228.972 C 605.787 224.966, 603.106 222.369, 600.925 218.567 C 595.139 208.480, 597.981 196.546, 608.323 187.499 C 611.151 185.024, 613.117 183, 612.690 183 C 612.263 183, 609.702 185.070, 606.997 187.600 M 531.410 186.967 C 522.171 191.604, 511.952 200.916, 508.877 207.500 C 508.361 208.604, 508.710 208.380, 509.656 207 C 510.599 205.625, 514.324 201.550, 517.935 197.945 C 529.590 186.309, 541.469 182.432, 553 186.500 C 555.338 187.325, 557.757 187.965, 558.376 187.922 C 558.994 187.880, 557.250 187.015, 554.500 186 C 546.586 183.080, 538.476 183.419, 531.410 186.967 M 419.588 186.921 C 425.354 187.852, 429.801 190.380, 431.035 193.430 C 431.695 195.061, 431.887 195.139, 431.937 193.801 C 432.052 190.719, 425.461 186.730, 419.708 186.399 L 414.500 186.099 419.588 186.921 M 566.208 190.324 C 579.040 194.704, 585.235 203.126, 585.356 216.357 C 585.404 221.597, 585.611 222.569, 586.212 220.383 C 587.152 216.968, 586.298 209.833, 584.391 205.162 C 581.022 196.910, 572.230 189.955, 563.500 188.638 C 560.460 188.179, 561.109 188.583, 566.208 190.324 M 24.537 194.151 C 23.657 197.093, 22.744 202.200, 22.507 205.500 L 22.076 211.500 23.031 205.517 C 23.557 202.226, 24.643 197.292, 25.446 194.553 C 26.249 191.814, 26.733 189.400, 26.521 189.188 C 26.309 188.976, 25.416 191.210, 24.537 194.151 M 184.071 190.738 C 180.346 192.652, 177.293 196.335, 176.807 199.500 C 176.575 201.009, 177.114 201.549, 179 201.702 C 181.372 201.893, 181.385 201.867, 179.250 201.202 C 177.024 200.508, 177.018 200.462, 178.750 197 C 181.257 191.986, 186.598 189.545, 191.925 190.980 C 194.149 191.579, 197.213 193.140, 198.734 194.451 L 201.500 196.833 198.500 197.504 C 193.698 198.578, 193.184 199.056, 197.374 198.552 C 202.339 197.954, 202.739 197.474, 200.413 194.904 C 195.987 190.014, 188.965 188.224, 184.071 190.738 M 54.044 191.918 C 50.809 197.963, 48.840 215.236, 50.820 220.206 C 51.194 221.145, 51.525 217.095, 51.555 211.206 C 51.599 202.760, 52.054 199.392, 53.709 195.250 C 55.808 190, 55.978 188.304, 54.044 191.918 M 453.193 195.668 C 453.087 199.061, 452.741 202.661, 452.424 203.668 C 451.888 205.376, 451.925 205.382, 452.972 203.753 C 453.611 202.760, 453.942 199.310, 453.740 195.753 L 453.385 189.500 453.193 195.668 M 407.015 195.250 C 407.002 196.736, 407.867 196.973, 412.750 196.820 L 418.500 196.640 413.519 196.256 C 410.780 196.044, 408.199 195.338, 407.785 194.686 C 407.280 193.893, 407.026 194.080, 407.015 195.250 M 423.750 195.706 C 424.988 195.944, 427.012 195.944, 428.250 195.706 C 429.488 195.467, 428.475 195.272, 426 195.272 C 423.525 195.272, 422.512 195.467, 423.750 195.706 M 106.500 198.476 C 101.991 199.495, 102.559 199.563, 112.279 199.171 L 123.058 198.735 127.029 202.910 C 129.213 205.206, 131 206.650, 131 206.119 C 131 204.493, 124.979 199.026, 122.673 198.558 C 117.296 197.467, 111.105 197.436, 106.500 198.476 M 284.291 200.700 C 281.013 204.914, 279.683 207, 280.271 207 C 280.486 207, 282.115 204.975, 283.893 202.500 C 287.947 196.855, 289.755 196.716, 290.291 202.007 L 290.696 206.015 290.598 201.766 C 290.467 196.087, 288.180 195.701, 284.291 200.700 M 360.042 197.083 C 360.296 199.608, 363.869 211.985, 363.915 210.500 C 363.984 208.234, 361.422 198.089, 360.563 197.230 C 360.253 196.920, 360.019 196.854, 360.042 197.083 M 661.562 199.719 C 660.329 205.330, 657.305 208.987, 653.765 209.150 C 650.614 209.294, 650.599 209.314, 653.338 209.725 C 655.106 209.989, 656.885 209.509, 658.052 208.452 C 660.099 206.600, 663.625 198.291, 662.740 197.406 C 662.437 197.104, 661.907 198.145, 661.562 199.719 M 184.500 200 C 180.341 201.058, 184.434 201.105, 189.500 200.057 C 192.863 199.362, 193.022 199.231, 190.500 199.233 C 188.850 199.235, 186.150 199.580, 184.500 200 M 240.252 202.500 C 240.263 204.700, 240.468 205.482, 240.707 204.238 C 240.946 202.994, 240.937 201.194, 240.687 200.238 C 240.437 199.282, 240.241 200.300, 240.252 202.500 M 95 202.591 C 92.525 204.002, 89.713 205.867, 88.750 206.734 C 86.231 209.003, 86.498 214.265, 89.250 216.595 C 91.498 218.498, 91.498 218.498, 89.750 216.421 C 87.661 213.939, 87.450 208.701, 89.376 207.103 C 90.133 206.475, 93.170 204.628, 96.126 202.999 C 99.082 201.369, 101.050 200.033, 100.500 200.030 C 99.950 200.027, 97.475 201.179, 95 202.591 M 149.272 207 C 149.272 209.475, 149.467 210.488, 149.706 209.250 C 149.944 208.012, 149.944 205.988, 149.706 204.750 C 149.467 203.512, 149.272 204.525, 149.272 207 M 634 203.558 C 637.716 204.367, 642.814 204.509, 642.371 203.791 C 642.102 203.356, 639.771 203.052, 637.191 203.116 C 634.611 203.180, 633.175 203.379, 634 203.558 M 221.018 207.957 C 219.179 212.396, 213.047 217.465, 206.593 219.879 C 203.476 221.046, 200.417 222, 199.796 222 C 199.175 222, 198.938 222.271, 199.269 222.602 C 200.253 223.587, 209.467 220.126, 214.191 216.997 C 218.148 214.376, 223.902 206.568, 222.736 205.402 C 222.479 205.146, 221.706 206.295, 221.018 207.957 M 627.441 206.535 C 625.558 208.025, 625.555 208.107, 627.355 209.285 C 636.780 215.457, 648.486 224.456, 652.976 228.981 C 655.988 232.017, 657.492 233.150, 656.318 231.500 C 653.279 227.231, 649.802 224.212, 639 216.469 C 626.867 207.771, 627.459 208.357, 628.965 206.542 C 630.600 204.572, 629.927 204.569, 627.441 206.535 M 326.199 210.750 C 321.928 217.490, 319.978 224.103, 320.144 231.285 L 320.287 237.500 321.036 229.500 C 321.801 221.327, 323.409 216.431, 327.303 210.417 C 330.132 206.049, 330.977 206.123, 331.100 210.750 C 331.155 212.813, 331.575 215.625, 332.034 217 C 332.587 218.658, 332.694 217.647, 332.353 214 C 331.438 204.221, 330.612 203.785, 326.199 210.750 M 377.476 214.500 C 377.781 222.494, 379.516 230.817, 380.644 229.690 C 380.870 229.463, 380.551 227.977, 379.933 226.389 C 379.316 224.800, 378.433 219.450, 377.972 214.500 L 377.132 205.500 377.476 214.500 M 541.089 208.579 C 539.403 209.997, 537.031 212.585, 535.818 214.329 C 534.558 216.141, 535.753 215.250, 538.607 212.250 C 541.354 209.363, 544.266 207, 545.078 207 C 546.767 207, 550.171 209.142, 554.462 212.903 C 556.123 214.360, 556.782 214.658, 555.962 213.583 C 554.015 211.030, 547.026 206, 545.427 206 C 544.726 206, 542.774 207.160, 541.089 208.579 M 291.210 224.500 C 291.025 240.909, 291.183 242.788, 292.995 245.759 C 298.810 255.297, 312.190 255.297, 318.005 245.759 C 319.098 243.967, 319.948 241.375, 319.894 240 C 319.804 237.713, 319.733 237.756, 319.071 240.500 C 317.924 245.254, 316.115 247.959, 312.686 250.050 C 306.613 253.753, 297.131 251.619, 293.814 245.804 C 292.923 244.242, 292.325 237.544, 291.957 225 L 291.413 206.500 291.210 224.500 M 239.252 211.500 C 239.263 213.700, 239.468 214.482, 239.707 213.238 C 239.946 211.994, 239.937 210.194, 239.687 209.238 C 239.437 208.282, 239.241 209.300, 239.252 211.500 M 277.625 211.979 C 275.369 217.619, 275.716 218.458, 278.092 213.104 C 279.164 210.687, 279.864 208.530, 279.646 208.313 C 279.428 208.095, 278.519 209.745, 277.625 211.979 M 447.570 210.927 C 446.027 212.538, 442.616 214.779, 439.990 215.909 C 435.898 217.669, 431.722 218.573, 415 221.317 L 412.500 221.728 415.119 221.864 C 419.657 222.100, 435.058 219.031, 439.997 216.906 C 443.862 215.243, 452.716 208, 450.883 208 C 450.603 208, 449.112 209.317, 447.570 210.927 M 132.138 211.500 C 132.101 212.050, 132.922 215.425, 133.964 219 C 135.005 222.575, 135.862 224.600, 135.868 223.500 C 135.878 221.410, 132.255 209.755, 132.138 211.500 M 22.497 219 C 22.915 224.568, 24.811 232.522, 25.546 231.788 C 25.766 231.568, 25.450 229.613, 24.845 227.444 C 24.239 225.275, 23.370 221.250, 22.914 218.500 L 22.085 213.500 22.497 219 M 465.349 222 C 465.349 226.675, 465.522 228.588, 465.732 226.250 C 465.943 223.912, 465.943 220.088, 465.732 217.750 C 465.522 215.412, 465.349 217.325, 465.349 222 M 238.272 221 C 238.272 223.475, 238.467 224.488, 238.706 223.250 C 238.944 222.012, 238.944 219.988, 238.706 218.750 C 238.467 217.512, 238.272 218.525, 238.272 221 M 271.604 228.689 C 269.622 234.637, 268.034 239.953, 268.076 240.502 C 268.118 241.051, 269.913 236.357, 272.064 230.071 C 274.215 223.785, 275.802 218.469, 275.591 218.258 C 275.380 218.047, 273.586 222.741, 271.604 228.689 M 531.526 220.950 C 530.687 222.573, 530.046 224.936, 530.102 226.200 C 530.186 228.080, 530.337 227.952, 530.929 225.500 C 531.327 223.850, 532.197 221.488, 532.862 220.250 C 533.526 219.012, 533.841 218, 533.561 218 C 533.281 218, 532.365 219.328, 531.526 220.950 M 102.703 219.912 C 106.665 220.235, 110.482 221.077, 111.185 221.782 C 113.062 223.663, 113.587 237.586, 111.860 239.677 C 109.659 242.344, 102.081 245.218, 93.501 246.640 L 85.500 247.966 92.301 247.450 C 100.031 246.863, 108.543 244.006, 111.914 240.866 C 113.997 238.925, 114.168 238.028, 113.838 230.770 C 113.368 220.423, 111.859 218.925, 102.139 219.162 L 95.500 219.323 102.703 219.912 M 502.433 224.596 C 500.857 235.105, 504.291 244.934, 511.444 250.390 C 515.454 253.448, 522.749 256.968, 525 256.931 C 525.825 256.918, 524.306 256.050, 521.624 255.002 C 514.338 252.156, 509.189 248.176, 506.187 243.070 C 503.794 239, 503.500 237.487, 503.500 229.250 C 503.500 224.162, 503.415 220, 503.311 220 C 503.207 220, 502.812 222.068, 502.433 224.596 M 555.062 223.850 C 553.792 226.917, 549.539 231.372, 547 232.296 C 545.739 232.755, 545.757 232.855, 547.114 232.921 C 549.881 233.056, 558.281 222.948, 556.708 221.375 C 556.467 221.133, 555.726 222.247, 555.062 223.850 M 149.091 223.500 C 149.001 225.747, 150.958 233.376, 151.487 232.844 C 151.675 232.655, 151.230 230.025, 150.499 227 C 149.768 223.975, 149.134 222.400, 149.091 223.500 M 408 222.961 C 408 224.080, 415.588 226.313, 417.324 225.706 C 417.971 225.480, 416.587 224.964, 414.250 224.560 C 411.913 224.155, 410 223.414, 410 222.912 C 410 222.410, 409.550 222, 409 222 C 408.450 222, 408 222.433, 408 222.961 M 52.047 223.290 C 52.021 223.724, 52.857 225.760, 53.905 227.814 C 58.192 236.216, 72.057 245.743, 81.188 246.559 L 85.500 246.945 81.045 245.990 C 70.473 243.723, 58.842 235.457, 54.503 227.127 C 53.178 224.582, 52.072 222.855, 52.047 223.290 M 190 224.500 C 187.525 225.217, 186.175 225.839, 187 225.883 C 187.825 225.926, 190.750 225.335, 193.500 224.570 C 196.250 223.805, 197.600 223.183, 196.500 223.188 C 195.400 223.192, 192.475 223.783, 190 224.500 M 583.089 228.105 C 580.893 235.449, 577.337 241.515, 571.329 248.164 C 566.138 253.909, 566.048 254.081, 570.362 250 C 572.978 247.525, 576.434 243.522, 578.042 241.105 C 581.196 236.363, 585.285 226.356, 584.739 224.717 C 584.554 224.163, 583.812 225.688, 583.089 228.105 M 334.166 226.500 C 334.153 228.629, 336.731 237.192, 336.876 235.500 C 336.923 234.950, 336.335 232.250, 335.570 229.500 C 334.805 226.750, 334.173 225.400, 334.166 226.500 M 180.533 226.946 C 179.785 228.157, 186.441 230.022, 191 229.878 C 194.869 229.756, 193.953 229.464, 186.500 228.441 C 182.603 227.906, 181.941 227.576, 183.500 226.947 C 185.420 226.173, 185.413 226.138, 183.309 226.070 C 182.104 226.032, 180.855 226.426, 180.533 226.946 M 237.155 232.538 C 236.874 245.288, 243.159 253.148, 253.398 252.853 L 258.500 252.706 252.955 252.103 C 242.676 250.985, 239.010 246.437, 237.959 233.500 L 237.310 225.500 237.155 232.538 M 425.500 227.445 C 426.050 227.691, 428.464 228.398, 430.865 229.016 C 442.853 232.101, 443.080 243.853, 431.262 249.586 C 429.060 250.654, 423.974 251.675, 419 252.047 L 410.500 252.683 417.384 252.842 C 426.544 253.052, 431.551 251.397, 436.715 246.449 C 440.140 243.167, 441 241.650, 441 238.894 C 441 232.807, 436.537 228.779, 428.465 227.584 C 426.284 227.261, 424.950 227.198, 425.500 227.445 M 137.471 243.727 C 137.453 253.213, 137.690 256.711, 138.134 253.500 C 139.001 247.222, 139.011 234.235, 138.150 231.227 C 137.793 229.976, 137.487 235.601, 137.471 243.727 M 532.360 230.386 C 534.219 231.881, 543.915 234.418, 544.715 233.618 C 544.948 233.386, 542.822 232.699, 539.992 232.092 C 537.162 231.485, 533.868 230.516, 532.673 229.939 C 530.623 228.949, 530.605 228.974, 532.360 230.386 M 207.980 232.752 C 212.259 234.902, 214.539 238.715, 213.654 242.242 C 212.735 245.903, 208.403 250.754, 204.085 252.957 C 198.842 255.631, 186.060 256.460, 178.508 254.614 C 171.485 252.898, 169.841 253.284, 176.149 255.168 C 182.531 257.074, 198.776 256.674, 203.069 254.505 C 209.715 251.147, 215 244.700, 215 239.950 C 215 237.316, 208.894 230.999, 206.350 231.002 C 205.170 231.003, 205.760 231.636, 207.980 232.752 M 26.031 233.354 C 26.014 233.823, 27.657 237.360, 29.682 241.214 C 33.729 248.916, 45.765 262.421, 51.143 265.294 C 53.974 266.806, 54.108 266.818, 52 265.372 C 45.386 260.835, 34.308 248.150, 30.274 240.493 C 27.957 236.097, 26.048 232.884, 26.031 233.354 M 384.824 237.750 C 385.902 239.262, 387.819 241.400, 389.084 242.500 C 390.349 243.600, 389.627 242.363, 387.480 239.750 C 383.182 234.520, 381.757 233.447, 384.824 237.750 M 659.393 238 C 660.154 239.925, 661.096 243.443, 661.487 245.817 C 661.879 248.192, 662.418 249.915, 662.687 249.647 C 663.526 248.807, 660.986 238.357, 659.461 236.382 C 658.184 234.727, 658.176 234.922, 659.393 238 M 154.128 238 C 156.585 243.255, 167.138 253, 170.372 253 C 170.933 253, 169.391 251.726, 166.946 250.168 C 162.807 247.531, 157.198 241.909, 154.230 237.421 C 153.155 235.796, 153.139 235.886, 154.128 238 M 465.618 240.880 C 466.301 248.766, 472.511 255.196, 479.151 254.893 C 480.593 254.827, 479.896 254.426, 477.347 253.853 C 470.649 252.349, 468.003 248.865, 465.686 238.500 C 465.440 237.400, 465.410 238.471, 465.618 240.880 M 622 236.490 C 622 237.175, 628.123 240.210, 628.580 239.753 C 628.797 239.536, 627.406 238.610, 625.487 237.695 C 623.569 236.781, 622 236.239, 622 236.490 M 338.004 240.346 C 337.995 242.246, 341.448 246.834, 344.040 248.364 C 345.563 249.264, 348.920 250, 351.500 250 C 354.080 250, 357.437 249.264, 358.960 248.364 C 361.750 246.716, 365.628 241.295, 364.689 240.355 C 364.410 240.077, 363.892 240.763, 363.538 241.881 C 363.183 242.998, 361.533 245.057, 359.870 246.456 C 357.479 248.468, 355.758 249, 351.646 249 C 345.784 249, 342.819 247.390, 339.918 242.633 C 338.867 240.910, 338.006 239.881, 338.004 240.346 M 603.190 241.353 C 597.316 244.612, 595.041 254.508, 598.840 260.270 C 601.662 264.550, 612.637 272, 616.120 272 C 616.780 272, 614.660 270.645, 611.410 268.989 C 601.187 263.780, 598 259.959, 598 252.912 C 598 247.530, 600.584 243.525, 605.415 241.421 C 607.112 240.683, 607.825 240.077, 607 240.075 C 606.175 240.073, 604.460 240.648, 603.190 241.353 M 618.500 241.520 C 621.800 242.263, 625.400 242.847, 626.500 242.817 C 629.536 242.734, 618.940 240.194, 615.500 240.180 C 613.679 240.172, 614.859 240.699, 618.500 241.520 M 266.520 243.938 C 266.181 245.005, 264.335 247.255, 262.417 248.938 C 260.500 250.622, 259.344 252, 259.849 252 C 261.035 252, 268 244.307, 268 242.997 C 268 241.347, 267.176 241.871, 266.520 243.938 M 393.791 245.920 C 396.330 248.100, 406.111 252.030, 408.788 251.946 C 409.729 251.917, 407.928 251.070, 404.784 250.065 C 401.640 249.060, 397.365 247.273, 395.284 246.096 C 391.899 244.180, 391.742 244.161, 393.791 245.920 M 488.964 247.086 C 488.247 248.819, 486.274 251.082, 484.580 252.115 C 482.886 253.147, 481.962 253.994, 482.527 253.996 C 485.322 254.006, 492.223 245.890, 490.708 244.375 C 490.467 244.133, 489.682 245.354, 488.964 247.086 M 660.585 254.683 C 659.685 258.690, 653.045 266.325, 649.002 267.999 C 647.316 268.698, 646.133 269.467, 646.375 269.708 C 647.305 270.638, 652.816 266.947, 656.370 263.012 C 660.192 258.781, 662.358 254.536, 661.683 252.599 C 661.472 251.994, 660.978 252.932, 660.585 254.683 M 561.617 255.914 C 558.848 257.739, 555.775 258.709, 546 260.844 L 541.500 261.826 547 261.277 C 553.337 260.644, 562.259 257.598, 564.031 255.462 C 565.641 253.523, 565.086 253.627, 561.617 255.914 M 531.500 258.865 C 532.600 259.347, 535.075 260.026, 537 260.375 C 539.403 260.811, 539.873 260.735, 538.500 260.135 C 537.400 259.653, 534.925 258.974, 533 258.625 C 530.597 258.189, 530.127 258.265, 531.500 258.865 M 134.720 262.998 C 132.546 267.618, 128.619 269.477, 122.739 268.670 C 119.861 268.275, 119.142 268.373, 120.500 268.974 C 125.911 271.370, 132.905 269.018, 135.544 263.915 C 136.412 262.237, 136.982 260.493, 136.811 260.039 C 136.640 259.585, 135.699 260.917, 134.720 262.998 M 108 268.500 C 104.836 270.309, 105.393 270.318, 111 268.552 C 114.193 267.546, 114.774 267.125, 113 267.102 C 111.625 267.085, 109.375 267.714, 108 268.500 M 66 272.132 C 69.431 273.640, 86.292 274.346, 93 273.261 C 97.556 272.524, 96.184 272.383, 85 272.436 C 77.575 272.471, 69.700 272.170, 67.500 271.766 C 64.108 271.144, 63.880 271.200, 66 272.132 M 621.779 273.391 C 624.264 273.917, 628.546 273.907, 632.243 273.368 C 638.327 272.479, 638.212 272.455, 628.036 272.477 C 619.398 272.496, 618.307 272.655, 621.779 273.391 M 114.253 296.250 C 108.233 300.457, 106.205 309.415, 109.635 316.643 C 113.876 325.581, 126.788 325.050, 134.417 315.623 C 137.196 312.190, 137.278 311.849, 135.706 310.278 C 134.135 308.706, 133.851 308.761, 131.264 311.139 C 120.770 320.781, 114 320.924, 114 311.505 C 114 305.575, 117.741 301, 122.589 301 C 125.300 301, 126 300.601, 126 299.057 C 126 296.779, 122.435 294, 119.513 294 C 118.391 294, 116.023 295.012, 114.253 296.250 M 294.027 296.472 C 292.186 298.431, 291.901 299.301, 292.803 300.203 C 294.529 301.929, 301.259 298.592, 300.810 296.233 C 300.291 293.508, 296.692 293.635, 294.027 296.472 M 555 300.800 C 555 302.213, 557.345 304, 559.200 304 C 561.780 304, 561.426 301.347, 558.750 300.630 C 555.726 299.820, 555 299.853, 555 300.800 M 306.244 302.156 C 304.265 304.135, 304.786 307.720, 307.690 312.108 C 310.774 316.768, 310.108 319.284, 305.649 319.816 C 302.749 320.163, 302.361 320.961, 304.200 322.800 C 306.051 324.651, 310.778 324.222, 313 322 C 315.727 319.273, 315.510 315.536, 312.389 311.443 C 309.225 307.296, 309.785 305.241, 314.193 304.818 C 316.325 304.613, 317.500 303.967, 317.500 303 C 317.500 301.040, 308.067 300.333, 306.244 302.156 M 205.709 302.624 C 205.319 303.014, 205 307.051, 205 311.595 C 205 317.870, 205.389 320.246, 206.616 321.473 C 208.969 323.826, 210.249 322.935, 212.150 317.622 C 214.269 311.700, 215.396 310.349, 220.302 307.846 C 222.985 306.477, 223.912 305.512, 223.215 304.815 C 221.808 303.408, 214.437 304.768, 212.808 306.735 C 211.660 308.120, 211.438 307.958, 210.994 305.406 C 210.500 302.574, 207.394 300.939, 205.709 302.624 M 450.667 302.667 C 450.300 303.033, 450 307.293, 450 312.131 C 450 319.587, 450.275 321.077, 451.804 321.895 C 454.280 323.220, 455.313 322.271, 457.373 316.778 C 459.145 312.052, 463.901 307, 466.577 307 C 467.360 307, 468 306.325, 468 305.500 C 468 304.675, 467.210 304, 466.243 304 C 463.224 304, 457.677 305.905, 456.836 307.232 C 456.311 308.058, 456.025 307.580, 456.015 305.857 C 455.998 302.826, 452.558 300.775, 450.667 302.667 M 499.229 303.171 C 498.471 303.929, 498 307.331, 498 312.045 C 498 318.396, 498.335 319.994, 499.981 321.483 C 501.603 322.950, 502.238 323.047, 503.481 322.016 C 504.317 321.322, 505 320.084, 505 319.264 C 505 316.062, 509.588 309.741, 513.277 307.858 C 519.464 304.702, 516.282 302.812, 509 305.317 C 505.840 306.405, 505.400 306.327, 504.475 304.520 C 503.235 302.099, 500.901 301.499, 499.229 303.171 M 227.131 304.342 C 225.610 306.175, 226.708 307, 230.667 307 C 232.500 307, 234 307.450, 234 308 C 234 308.550, 232.915 309, 231.589 309 C 228.880 309, 224 314.094, 224 316.922 C 224 319.519, 227.564 322.301, 230.737 322.181 C 232.256 322.124, 235.188 322.015, 237.250 321.939 L 241 321.802 241 315.324 C 241 309.498, 240.706 308.552, 238.077 305.923 C 234.873 302.719, 229.163 301.894, 227.131 304.342 M 289.750 303.689 C 288.788 303.941, 288 305.014, 288 306.073 C 288 307.609, 288.711 308, 291.500 308 C 294.344 308, 295 308.378, 295 310.019 C 295 311.689, 294.555 311.926, 292.423 311.391 C 288.883 310.503, 285 312.741, 285 315.669 C 285 318.871, 288.406 322, 291.893 322 C 293.542 322, 295.034 322.645, 295.362 323.500 C 295.678 324.325, 296.851 325, 297.969 325 C 299.867 325, 300 324.382, 300 315.571 C 300 303.588, 298.186 301.485, 289.750 303.689 M 332.250 303.662 C 331.563 303.940, 331 304.804, 331 305.583 C 331 306.579, 332.239 307, 335.167 307 C 339.708 307, 339.604 307.850, 334.867 309.465 C 331.036 310.771, 328.492 314.839, 329.355 318.279 C 330.207 321.671, 335.569 323.609, 339.344 321.889 C 341.374 320.964, 342.272 320.981, 343.459 321.966 C 345.642 323.777, 346.338 321.349, 345.793 313.820 C 345.422 308.689, 344.909 307.318, 342.620 305.349 C 340.038 303.128, 335.431 302.379, 332.250 303.662 M 412.162 305.305 C 411.567 306.022, 410.777 310.229, 410.409 314.654 C 409.770 322.313, 409.840 322.725, 411.882 323.259 C 414.333 323.900, 416 321.625, 416 317.637 C 416 314.666, 418.593 311.777, 420.871 312.209 C 422.009 312.424, 422.593 313.795, 422.807 316.759 C 423.078 320.496, 423.403 321, 425.538 321 C 428.620 321, 429.647 317.492, 428.015 312.545 C 426.741 308.684, 424.516 307, 420.688 307 C 419.344 307, 417.685 306.325, 417 305.500 C 415.468 303.654, 413.595 303.578, 412.162 305.305 M 163.491 306.383 C 162.040 307.444, 161.172 307.502, 159.769 306.633 C 157.151 305.012, 156.034 307.243, 156.015 314.128 C 156.005 318.093, 156.475 320.149, 157.608 321.090 C 158.975 322.224, 159.426 322.138, 160.608 320.521 C 161.374 319.474, 162 317.423, 162 315.964 C 162 313.581, 164.599 310, 166.329 310 C 166.698 310, 167 312.218, 167 314.929 C 167 320.180, 168.933 323.347, 171.529 322.351 C 172.539 321.963, 173 320.292, 173 317.015 C 173 312.215, 174.843 309.167, 176.956 310.473 C 177.530 310.828, 178 313.529, 178 316.476 C 178 321.775, 178.970 323.268, 181.750 322.246 C 183.625 321.556, 183.389 310, 181.443 307.223 C 179.648 304.659, 175.476 304.278, 172.446 306.400 C 170.733 307.600, 170.174 307.600, 168.532 306.400 C 166.163 304.667, 165.839 304.666, 163.491 306.383 M 190.749 307.785 L 187.281 310.488 186.685 322.994 C 186.060 336.126, 186.806 339.056, 190.422 337.668 C 191.678 337.186, 192 335.423, 192 329.031 C 192 321.305, 192.088 321, 194.312 321 C 197.738 321, 201.193 315.831, 200.808 311.279 C 200.553 308.258, 199.962 307.415, 197.358 306.358 C 194.472 305.186, 193.934 305.303, 190.749 307.785 M 263.106 306.638 C 261.406 307.829, 260.597 307.910, 259.501 307.001 C 257.009 304.932, 256 306.949, 256 314 C 256 317.785, 256.470 321.172, 257.044 321.527 C 258.855 322.647, 261 319.885, 261 316.434 C 261 314.125, 261.685 312.633, 263.250 311.535 C 265.483 309.968, 265.507 309.999, 266.500 315.728 C 267.342 320.586, 267.856 321.551, 269.750 321.820 C 271.772 322.107, 272 321.720, 272 318.004 C 272 313.234, 273.428 310, 275.535 310 C 276.640 310, 277 311.322, 277 315.378 C 277 320.770, 278.733 323.901, 280.956 322.527 C 282.274 321.713, 282.323 310.980, 281.025 307.565 C 280.242 305.505, 279.379 305, 276.647 305 C 274.776 305, 272.695 305.663, 272.022 306.474 C 270.958 307.756, 270.442 307.763, 268.049 306.525 C 265.644 305.282, 265.022 305.296, 263.106 306.638 M 367.350 306.486 C 366.063 307.427, 365.131 307.524, 364.266 306.805 C 363.584 306.239, 362.345 306.037, 361.513 306.357 C 360.363 306.798, 360 308.608, 360 313.910 C 360 317.744, 360.470 321.172, 361.044 321.527 C 362.752 322.583, 365 319.963, 365 316.917 C 365 313.534, 368.908 309.253, 370.175 311.249 C 370.612 311.937, 370.976 314.397, 370.985 316.715 C 370.996 319.818, 371.500 321.197, 372.895 321.944 C 375.353 323.259, 377.439 320.958, 376.492 317.974 C 375.688 315.442, 377.728 310, 379.481 310 C 380.252 310, 380.941 312.139, 381.304 315.656 C 381.916 321.585, 383.478 323.678, 385.832 321.724 C 386.904 320.835, 387.076 319.044, 386.567 314.075 C 386.201 310.506, 385.419 307.005, 384.829 306.293 C 383.406 304.579, 378.866 304.647, 376.444 306.417 C 375.378 307.197, 374.054 307.492, 373.503 307.073 C 371.317 305.412, 369.108 305.201, 367.350 306.486 M 391.635 307.073 C 383.934 313.130, 395.576 326.178, 404.764 321.789 C 406.304 321.053, 407.640 319.502, 407.820 318.241 C 408.193 315.620, 406.996 315.434, 403.014 317.493 C 401.426 318.314, 399.402 318.708, 398.516 318.368 C 397.244 317.880, 397.647 317.245, 400.427 315.356 C 402.365 314.039, 404.471 311.988, 405.108 310.798 C 407.781 305.803, 397.029 302.830, 391.635 307.073 M 484.234 307.835 L 480.042 310.500 480.271 324 C 480.487 336.757, 480.610 337.500, 482.500 337.500 C 484.200 337.500, 484.538 336.750, 484.751 332.500 C 485.194 323.701, 485.931 321, 487.890 321 C 491.270 321, 495.532 314.254, 494.571 310.425 C 494.241 309.111, 492.724 307.391, 491.199 306.603 C 488.634 305.276, 488.115 305.368, 484.234 307.835 M 519.635 307.073 C 511.934 313.130, 523.576 326.178, 532.764 321.789 C 534.304 321.053, 535.640 319.502, 535.820 318.241 C 536.193 315.620, 534.996 315.434, 531.014 317.493 C 529.426 318.314, 527.422 318.716, 526.562 318.385 C 525.369 317.928, 525.961 317.087, 529.045 314.852 C 534.249 311.083, 534.959 309.195, 532.056 306.844 C 528.968 304.344, 522.963 304.454, 519.635 307.073 M 539.073 307.635 C 536.228 311.251, 536.312 317.010, 539.250 319.752 C 543.675 323.882, 550.600 323.485, 553.020 318.962 C 555.014 315.237, 553.728 315.147, 545.827 318.455 C 543.413 319.465, 541.703 315.911, 542.983 312.544 C 543.641 310.814, 544.967 309.757, 546.983 309.353 C 550.265 308.697, 550.642 308.042, 548.800 306.200 C 546.591 303.991, 541.329 304.767, 539.073 307.635 M 140.223 307.557 C 137.258 309.633, 137.131 316.131, 140 319 C 143.142 322.142, 148.268 321.659, 151.411 317.923 C 154.731 313.978, 154.715 310.708, 151.365 308.073 C 148.241 305.615, 143.319 305.387, 140.223 307.557 M 433.223 307.557 C 430.258 309.633, 430.131 316.131, 433 319 C 436.142 322.142, 441.268 321.659, 444.411 317.923 C 447.731 313.978, 447.715 310.708, 444.365 308.073 C 441.241 305.615, 436.319 305.387, 433.223 307.557 M 567.668 307.253 C 566.726 307.943, 565.699 310.080, 565.387 312.004 C 564.613 316.770, 567.849 321, 572.268 321 C 579.294 321, 584.024 311.232, 578.777 307.557 C 576.104 305.684, 570.041 305.518, 567.668 307.253 M 396.742 309.125 C 395.784 309.661, 395 310.852, 395 311.772 C 395 313.177, 395.351 313.093, 397.194 311.250 C 399.649 308.795, 399.402 307.636, 396.742 309.125 M 524.619 309.524 C 523.729 310.414, 523 311.661, 523 312.294 C 523 312.927, 523.987 312.457, 525.194 311.250 C 526.401 310.043, 527.130 308.797, 526.813 308.480 C 526.497 308.164, 525.510 308.633, 524.619 309.524 M 557 312.935 C 557 319.434, 558.408 323, 560.975 323 C 562.766 323, 563 322.356, 563 317.434 C 563 310.970, 561.730 308, 558.965 308 C 557.277 308, 557 308.696, 557 312.935 M 144.607 310.582 C 143.677 313.006, 143.886 317, 144.943 317 C 146.900 317, 148.945 312.767, 147.917 310.845 C 146.706 308.582, 145.414 308.479, 144.607 310.582 M 437.623 310.540 C 436.705 312.932, 436.865 317, 437.878 317 C 439.501 317, 441.156 314.129, 440.827 311.883 C 440.426 309.150, 438.471 308.330, 437.623 310.540 M 571.478 312.099 C 570.596 316.115, 572.101 317.651, 574.414 315.095 C 575.546 313.844, 575.944 312.400, 575.523 311.072 C 574.543 307.986, 572.254 308.568, 571.478 312.099 M 194.168 311.687 C 193.525 312.887, 193.018 314.686, 193.040 315.684 C 193.070 317.030, 193.475 316.772, 194.603 314.690 C 195.441 313.145, 195.949 311.346, 195.731 310.693 C 195.503 310.009, 194.839 310.431, 194.168 311.687 M 487.125 312.401 C 486.470 313.997, 486.099 315.796, 486.300 316.399 C 486.864 318.093, 489.180 313.118, 488.721 311.198 C 488.416 309.925, 488.017 310.226, 487.125 312.401 M 231.035 314.934 C 229.626 317.567, 229.735 319, 231.345 319 C 232.946 319, 236 315.832, 236 314.171 C 236 312.252, 232.154 312.843, 231.035 314.934 M 335.388 315.531 C 333.346 318.647, 334.179 319.695, 337.496 318.184 C 338.966 317.514, 340 316.208, 340 315.021 C 340 312.205, 337.377 312.494, 335.388 315.531 M 289.419 315.131 C 288.567 316.510, 290.524 318.412, 291.913 317.554 C 292.511 317.184, 293 316.507, 293 316.048 C 293 314.718, 290.129 313.982, 289.419 315.131" stroke="none" fill="#758ce2" fill-rule="evenodd"/><path d="M 232.405 21.116 C 230.795 22.904, 230.537 24.568, 230.740 31.866 C 230.871 36.615, 231.685 44.325, 232.548 49 C 236.542 70.646, 241.349 90.755, 243.582 95.162 C 246.981 101.869, 252.404 105.307, 260.367 105.801 C 269.504 106.368, 276.749 103.319, 284.701 95.560 C 290.434 89.966, 291 89.041, 291 85.264 C 291 82.109, 290.467 80.740, 288.777 79.557 C 285.586 77.322, 282.809 77.609, 274.840 81 C 265.785 84.854, 262.604 84.912, 261.154 81.250 C 260.555 79.737, 257.604 69.950, 254.596 59.500 C 247.280 34.088, 243.289 22.859, 240.824 20.750 C 238.074 18.398, 234.721 18.543, 232.405 21.116 M 365.753 42.084 C 357.324 44.071, 350 51.929, 350 58.985 C 350 65.375, 354.172 70.743, 367 80.857 C 370.995 84.006, 368.741 84.317, 361.940 81.554 C 354.005 78.329, 350.603 78.306, 347.455 81.455 C 339.481 89.428, 351.580 102, 367.228 102 C 375.324 102, 379.630 100.417, 383.257 96.107 C 389.716 88.430, 387.572 80.501, 375.748 68.335 C 368.352 60.727, 367.950 60.097, 369.840 59.085 C 373.413 57.174, 377.538 57.851, 381.500 61 C 385.942 64.530, 387.309 64.691, 390 62 C 391.403 60.597, 392 58.667, 392 55.535 C 392 45.259, 379.487 38.847, 365.753 42.084 M 304.300 46.484 C 295.261 52.571, 289.826 62.050, 289.737 71.884 C 289.644 82.093, 293.632 86.505, 306.065 89.951 C 315.553 92.580, 319.339 92.521, 325.507 89.649 C 336.680 84.446, 344.870 68.659, 341.975 57.906 C 340.106 50.968, 334.948 46.600, 326.303 44.635 C 314.822 42.027, 310.362 42.402, 304.300 46.484 M 313.579 58.117 C 310.596 60.463, 307 66.917, 307 69.925 C 307 72.434, 309.826 74, 314.352 74 C 319.463 74, 320.869 73.177, 323.043 68.917 C 325.545 64.012, 325.504 62.807, 322.750 60.299 C 318.348 56.290, 316.469 55.843, 313.579 58.117 M 478.054 138.608 C 476.350 140.042, 474.531 142.007, 474.014 142.974 C 472.475 145.850, 467.974 189.384, 466.054 219.963 C 464.741 240.884, 466.670 249.192, 473.607 252.484 C 479.818 255.431, 485.746 253.391, 488.873 247.229 C 493.300 238.508, 494.070 229.865, 493.930 190.500 C 493.858 170.150, 493.425 150.857, 492.969 147.627 C 491.488 137.143, 484.684 133.029, 478.054 138.608 M 87.500 141.667 C 78.381 142.783, 63.798 148.534, 55.557 154.264 C 35.296 168.353, 22.983 190.078, 22.836 212 C 22.735 227.046, 29.362 242.837, 41.005 255.291 C 53.884 269.066, 66.211 273.784, 86.441 272.684 C 93.746 272.286, 99.537 271.371, 103.500 269.986 C 106.800 268.832, 110.331 267.625, 111.347 267.302 C 112.363 266.980, 116.272 267.296, 120.032 268.006 C 128.988 269.696, 132.083 268.526, 135.090 262.315 C 136.949 258.474, 137.273 255.975, 137.378 244.670 C 137.491 232.516, 137.234 230.542, 134.049 219.081 C 131.086 208.418, 130.065 206.101, 126.828 202.698 L 123.058 198.735 112.779 199.205 C 104.674 199.575, 101.548 200.159, 98 201.967 C 89.776 206.159, 88 207.837, 88 211.413 C 88 216.763, 90.700 218.327, 101.022 218.957 C 112.167 219.636, 113.248 220.523, 113.817 229.462 C 114.427 239.053, 113.816 240.454, 107.715 243.439 C 81.946 256.046, 50 238.463, 50 211.673 C 50 195.076, 58.103 181.231, 74.328 170.107 C 85.458 162.476, 100.087 159.380, 113.004 161.921 C 120.284 163.353, 122 162.493, 122 157.412 C 122 155.088, 121.039 152.975, 118.845 150.476 C 114.745 145.807, 109.751 143.328, 101.871 142.049 C 95.545 141.022, 93.262 140.962, 87.500 141.667 M 404.882 166.381 C 392.238 170.899, 384.383 181.140, 379.883 198.971 C 374.966 218.460, 380.505 236.654, 393.954 245.187 C 403.476 251.229, 418.609 253.695, 428.315 250.787 C 434.143 249.041, 440 243.177, 440 239.089 C 440 232.035, 437.033 230.058, 421.914 227.039 C 404.569 223.575, 403.877 222.768, 416.750 221.015 C 435.179 218.505, 442.969 215.860, 448.186 210.342 C 451.828 206.490, 453 202.972, 453 195.895 C 453 183.603, 444.173 173.363, 428.488 167.459 C 421.093 164.676, 410.950 164.212, 404.882 166.381 M 172.590 171.410 C 159.198 177.067, 151.088 191.120, 149.454 211.500 C 148.314 225.718, 152.438 237.540, 161.430 245.829 C 166.979 250.944, 170.318 252.637, 178.710 254.592 C 186.901 256.501, 198.633 255.736, 204.124 252.936 C 211.436 249.207, 215.514 241.826, 212.890 237.069 C 210.691 233.085, 205.532 231.213, 193.819 230.148 C 183.243 229.186, 177.808 227.697, 181 226.636 C 181.825 226.362, 186.713 225.181, 191.862 224.013 C 214.669 218.837, 223.033 212.057, 222.978 198.790 C 222.934 188.213, 216.103 179.325, 203.371 173.279 C 197.050 170.277, 194.619 169.682, 187.215 169.329 C 179.604 168.966, 177.752 169.230, 172.590 171.410 M 247.356 177.312 L 243.742 180.625 241.392 199.062 C 240.100 209.203, 238.746 222.245, 238.384 228.044 C 237.798 237.409, 237.956 239.112, 239.794 243.268 C 242.481 249.342, 246.721 251.991, 253.765 251.996 C 258.322 251.999, 259.500 251.563, 262.533 248.750 C 265.505 245.993, 266.877 243.012, 271.583 229.090 C 277.617 211.234, 280.298 205.326, 284.750 200.076 C 290.663 193.103, 291.976 197.981, 291.997 227 C 292.006 240.601, 292.247 242.892, 293.960 245.701 C 299.229 254.343, 312.887 253.920, 317.515 244.972 C 318.447 243.168, 319.471 237.542, 319.946 231.613 C 320.777 221.225, 323.162 214.144, 327.862 208.106 C 330.473 204.752, 331.609 205.989, 332.340 212.983 C 333.099 220.236, 337.551 238.232, 339.539 242.075 C 342.018 246.869, 345.699 249, 351.500 249 C 357.438 249, 360.971 246.873, 363.689 241.662 C 367.415 234.518, 364.151 206.501, 358.064 193.377 C 352.335 181.026, 344.375 175.062, 333.566 175.022 C 325.887 174.994, 320.215 177.719, 314.751 184.062 L 310.575 188.909 304.538 183.114 C 296.756 175.644, 292.796 174.243, 285.923 176.525 C 283.136 177.451, 277.562 180.412, 273.536 183.104 C 269.510 185.797, 265.993 188, 265.719 188 C 265.446 188, 264.925 186.415, 264.562 184.479 C 264.199 182.542, 262.527 179.392, 260.847 177.479 C 256.699 172.755, 252.388 172.701, 247.356 177.312 M 621.070 180.025 C 602.010 186.880, 592.857 204.499, 600.989 218.680 C 603.430 222.935, 605.793 225.079, 614.230 230.693 C 619.879 234.452, 626.413 238.377, 628.750 239.415 C 631.087 240.454, 633 241.910, 633 242.652 C 633 244.372, 633.157 244.381, 620.593 241.926 C 611.948 240.237, 609.336 240.064, 606.521 240.993 C 596.515 244.295, 594.864 256.871, 603.469 264.239 C 607.422 267.623, 617.112 271.870, 622.385 272.529 C 629.029 273.359, 640.690 271.619, 647.172 268.831 C 653.087 266.286, 659.179 259.683, 660.895 253.957 C 662.972 247.022, 660.696 238.191, 654.964 230.955 C 651.999 227.210, 636.547 215.026, 629.469 210.850 C 627.561 209.724, 626 208.406, 626 207.922 C 626 206.365, 633.806 203, 637.416 203 C 639.517 203, 642.979 204.219, 646.090 206.053 C 653.448 210.391, 656.787 209.891, 659.807 204 C 664.888 194.087, 658.289 182.673, 645.409 179.096 C 639.147 177.358, 627.221 177.813, 621.070 180.025 M 530.910 188.178 C 522.460 192.367, 511.366 203.423, 507.668 211.341 C 500.129 227.481, 502.127 242.981, 512.687 250.274 C 517.643 253.697, 521.550 255.281, 532.935 258.482 C 541.307 260.836, 542.971 261.005, 548.795 260.098 C 565.904 257.435, 579.349 243.574, 584.520 223.266 C 587.068 213.260, 584.750 204.130, 577.897 197.178 C 573.629 192.849, 571.600 191.890, 558.758 188.139 C 544.684 184.027, 539.267 184.034, 530.910 188.178 M 412.763 187.508 C 410.128 188.992, 407 193.641, 407 196.070 C 407 196.932, 409.823 197.059, 417.750 196.555 C 423.663 196.178, 429.288 195.644, 430.250 195.368 C 432.990 194.581, 432.319 192.345, 428.458 189.400 C 424.109 186.083, 416.845 185.207, 412.763 187.508 M 184.500 190.391 C 182.850 191.125, 180.744 192.577, 179.820 193.615 C 177.496 196.226, 175.859 200.795, 176.996 201.497 C 177.970 202.100, 200.890 198.443, 201.791 197.542 C 202.554 196.779, 198.938 193.016, 196.002 191.518 C 191.826 189.387, 187.669 188.979, 184.500 190.391 M 540.903 208.735 C 536.677 212.291, 530 222.653, 530 225.655 C 530 226.945, 530.853 228.853, 531.895 229.895 C 534.123 232.123, 542.328 234.075, 546.244 233.307 C 549.946 232.581, 554.595 227.627, 556.667 222.201 C 558.174 218.255, 558.203 217.452, 556.917 215.161 C 555.262 212.212, 547.519 206, 545.499 206 C 544.759 206, 542.691 207.231, 540.903 208.735" stroke="none" fill="#094eb0" fill-rule="evenodd"/></svg>